<svg height="512" viewBox="0 0 61 60" width="512" xmlns="http://www.w3.org/2000/svg"><g id="Page-1" fill="none" fill-rule="evenodd"><g id="008---Beaver" fill-rule="nonzero" transform="translate(-1 -1)"><path id="Shape" d="m15.45 8.67c-1.1742839.63105872-2.2888575 1.3674136-3.33 2.2-1.43-2.16-3.32-4.38-4.73-4.82-.15733827-.07639045-.34315587-.06501386-.49.03-.73.4-1.02 1.23-.86 2.47.33947588 2.0719602 1.47300123 3.9300808 3.16 5.18-.85485826 1.0412187-1.5957495 2.170994-2.21 3.37-5.39-3.94-6.95-11.84-2.01-14.53 4.15-2.28 8.29 2.76 10.47 6.1z" fill="#783e22"/><path id="Shape" d="m38.06 31.81c-.07.08-.15.15-.22.22-1.0341925.8622132-2.1815007 1.5788602-3.41 2.13-.01.01-.02.01-.03.02-2.1356228 1.0900141-4.6643772 1.0900141-6.8 0-.01-.01-.02-.01-.03-.02-1.2284993-.5511398-2.3758075-1.2677868-3.41-2.13-.06-.06-.13-.12-.19-.19-.84-.87-1.44-2.25-.65-3.37.8306368-.9529897 1.951493-1.6065296 3.19-1.86 1.3478672-.3637235 2.7343545-.5651502 4.13-.6.12-.01.24-.01.36-.01s.24 0 .36.01c1.3956455.0348498 2.7821328.2362765 4.13.6 1.238507.2534704 2.3593632.9070103 3.19 1.86.78 1.1.2 2.46-.62 3.34z" fill="#607d8b"/><path id="Shape" d="m38.68 28.47c-.8306368-.9529897-1.951493-1.6065296-3.19-1.86-1.3478672-.3637235-2.7343545-.5651502-4.13-.6-.12-.01-.24-.01-.36-.01s-.24 0-.36.01c-.378.011-.759.036-1.14.07 1.0105704.086441 2.0112886.2638258 2.99.53 1.238507.2534704 2.3593632.9070103 3.19 1.86.78 1.1.2 2.46-.62 3.34-.07.08-.15.15-.22.22-1.0341925.8622132-2.1815007 1.5788602-3.41 2.13-.01.01-.02.01-.03.02-.6009995.3027751-1.2400953.523095-1.9.655 1.6603402.3439606 3.3882966.1129786 4.9-.655.01-.01.02-.01.03-.02 1.2284993-.5511398 2.3758075-1.2677868 3.41-2.13.07-.07.15-.14.22-.22.82-.88 1.4-2.24.62-3.34z" fill="#37474f"/><path id="Shape" d="m55.06 17.09c-.6166687-1.194478-1.3574208-2.3206893-2.21-3.36 1.6883509-1.2486829 2.8222421-3.1074032 3.16-5.18.16-1.24-.14-2.07-.86-2.47-.1468441-.09501386-.3326617-.10639045-.49-.03-1.4.44-3.31 2.66-4.73 4.83-1.0366874-.8367362-2.14802-1.57650879-3.32-2.21 2.17-3.34 6.31-8.38 10.46-6.1 4.93 2.7 3.38 10.58-2.01 14.52z" fill="#783e22"/><path id="Shape" d="m12.12 10.87c-1.067605.8520674-2.0459537 1.8103131-2.92 2.86-1.68699877-1.2499192-2.82052412-3.1080398-3.16-5.18-.16-1.24.13-2.07.86-2.47.14684413-.09501386.33266173-.10639045.49-.03 1.41.44 3.3 2.66 4.73 4.82z" fill="#dfc49c"/><path id="Shape" d="m57.05 23c-.3741472-2.0558413-1.0444562-4.0465579-1.99-5.91-.6166687-1.194478-1.3574208-2.3206893-2.21-3.36-.8715282-1.0490024-1.8501632-2.0041769-2.92-2.85-1.0366874-.8367362-2.14802-1.57650879-3.32-2.21-4.8225718-2.43904786-10.1557954-3.69694829-15.56-3.67h-.05c-5.400963-.02654755-10.7308496 1.23137427-15.55 3.67-1.1742839.63105872-2.2888575 1.3674136-3.33 2.2-1.067605.8520674-2.0459537 1.8103131-2.92 2.86-.85485826 1.0412187-1.5957495 2.170994-2.21 3.37-.94994086 1.8580725-1.62049676 3.8461528-1.99 5.9-4 21.41-3 29 4 33 5.14 2.93 10.82 1.56 16.25.62l-.9-4.03c-2.32.06-4.74-.97-6.35-4.59-3.23-7.28 3.34-13.9 5.97-16.16-.84-.87-1.44-2.25-.65-3.37.8306368-.9529897 1.951493-1.6065296 3.19-1.86 1.3478672-.3637235 2.7343545-.5651502 4.13-.6.12-.01.24-.01.36-.01s.24 0 .36.01c1.3956455.0348498 2.7821328.2362765 4.13.6 1.238507.2534704 2.3593632.9070103 3.19 1.86.78 1.1.2 2.46-.62 3.34 2.62 2.26 9.23 8.89 5.99 16.19-1.62 3.65-4.06 4.67-6.4 4.58l-.9 4.03c5.44.94 11.14 2.33 16.3-.61 7-4 8-11.59 4-33zm-38.05 4c-2.209139 0-4-1.790861-4-4s1.790861-4 4-4c.2824491-.0008153.5641348.0293653.84.09 1.5388756.3289834 2.7410166 1.5311244 3.07 3.07.0606347.2758652.0908153.5575509.09.84 0 1.060866-.4214274 2.0782816-1.1715729 2.8284271s-1.7675611 1.1715729-2.8284271 1.1715729zm24.05 0c-2.209139 0-4-1.790861-4-4-.0008153-.2824491.0293653-.5641348.09-.84.3289834-1.5388756 1.5311244-2.7410166 3.07-3.07.2758652-.0606347.5575509-.0908153.84-.09 2.209139 0 4 1.790861 4 4s-1.790861 4-4 4z" fill="#91562d"/><path id="Shape" d="m57.05 23c-.3741472-2.0558413-1.0444562-4.0465579-1.99-5.91-.6166687-1.194478-1.3574208-2.3206893-2.21-3.36-.8715282-1.0490024-1.8501632-2.0041769-2.92-2.85-1.0366874-.8367362-2.14802-1.57650879-3.32-2.21-4.8225718-2.43904786-10.1557954-3.69694829-15.56-3.67h-.05s-.547-.018-1.474.02c4.9048303.17392007 9.712083 1.41976447 14.084 3.65 1.17198.63349121 2.2833126 1.3732638 3.32 2.21 1.0698368.8458231 2.0484718 1.8009976 2.92 2.85.8525792 1.0393107 1.5933313 2.165522 2.21 3.36.9455438 1.8634421 1.6158528 3.8541587 1.99 5.91 4 21.41 3 29-4 33-1.7866528 1.0023398-3.7763348 1.5888876-5.821 1.716 3.0461126.3308699 6.1210735-.26732 8.821-1.716 7-4 8-11.59 4-33z" fill="#6d4122"/><path id="Shape" d="m22.91 22.16c-.3186558 1.1676258-1.4279668 1.9392907-2.6335242 1.8319462-1.2055574-.1073444-2.1610776-1.0628646-2.268422-2.268422-.1073445-1.2055574.6643204-2.3148684 1.8319462-2.6335242 1.5388756.3289834 2.7410166 1.5311244 3.07 3.07z" fill="#37474f"/><path id="Shape" d="m23 23c0 2.209139-1.790861 4-4 4s-4-1.790861-4-4 1.790861-4 4-4c.2824491-.0008153.5641348.0293653.84.09-1.1676258.3186558-1.9392907 1.4279668-1.8319462 2.6335242.1073444 1.2055574 1.0628646 2.1610776 2.268422 2.268422 1.2055574.1073445 2.3148684-.6643204 2.6335242-1.8319462.0606347.2758652.0908153.5575509.09.84z" fill="#f5f5f5"/><path id="Shape" d="m56.01 8.55c-.3377579 2.0725968-1.4716491 3.9313171-3.16 5.18-.8715282-1.0490024-1.8501632-2.0041769-2.92-2.85 1.42-2.17 3.33-4.39 4.73-4.83.1573383-.07639045.3431559-.06501386.49.03.72.4 1.02 1.23.86 2.47z" fill="#dfc49c"/><path id="Shape" d="m44.05 48c-1.62 3.65-4.06 4.67-6.4 4.58-.5391628-.0144502-1.0753695-.0848274-1.6-.21-1.8043758-.4588706-3.5024732-1.2637687-5-2.37h-.05c-1.4975268 1.1062313-3.1956242 1.9111294-5 2.37-.541227.1284998-1.0940124.2022045-1.65.22-2.32.06-4.74-.97-6.35-4.59-3.23-7.28 3.34-13.9 5.97-16.16.06.07.13.13.19.19 1.0341925.8622132 2.1815007 1.5788602 3.41 2.13.01.01.02.01.03.02 2.1356228 1.0900141 4.6643772 1.0900141 6.8 0 .01-.01.02-.01.03-.02 1.2284993-.5511398 2.3758075-1.2677868 3.41-2.13.07-.07.15-.14.22-.22 2.62 2.26 9.23 8.89 5.99 16.19z" fill="#ffe0b2"/><path id="Shape" d="m38.06 31.81c-.07.08-.15.15-.22.22-.4363625.3936187-.9106834.7429949-1.416 1.043 2.98 2.953 7.392 8.7 4.626 14.927-1.227 2.765-2.926 4.019-4.694 4.426.4259553.0893477.8589726.1408815 1.294.154 2.34.09 4.78-.93 6.4-4.58 3.24-7.3-3.37-13.93-5.99-16.19z" fill="#dfc49c"/><path id="Shape" d="m47.05 23c0 2.209139-1.790861 4-4 4s-4-1.790861-4-4c-.0008153-.2824491.0293653-.5641348.09-.84.3186558 1.1676258 1.4279668 1.9392907 2.6335242 1.8319462 1.2055574-.1073444 2.1610776-1.0628646 2.268422-2.268422.1073445-1.2055574-.6643204-2.3148684-1.8319462-2.6335242.2758652-.0606347.5575509-.0908153.84-.09 2.209139 0 4 1.790861 4 4z" fill="#f5f5f5"/><path id="Shape" d="m44.05 21.5c-.00237 1.2501872-.9278964 2.3064245-2.1669421 2.4729765-1.2390456.1665519-2.4106379-.6077916-2.7430579-1.8129765.3289834-1.5388756 1.5311244-2.7410166 3.07-3.07 1.0860939.2972752 1.8394114 1.2839573 1.84 2.41z" fill="#37474f"/><path id="Shape" d="m31 50v8c-.0032948 1.1032019-.8967981 1.9967052-2 2h-1.4c-.9367417-.0041311-1.7460429-.6557224-1.95-1.57l-.4-1.81-.9-4.03c.5559876-.0177955 1.108773-.0915002 1.65-.22 1.8043758-.4588706 3.5024732-1.2637687 5-2.37z" fill="#f5f5f5"/><path id="Shape" d="m28 51.711v6.289c-.0017416.7912701-.469827 1.5071193-1.194 1.826.2495435.1130165.5200624.172299.794.174h1.4c1.1032019-.0032948 1.9967052-.8967981 2-2v-8c-.9308905.6837786-1.9375424 1.2579058-3 1.711z" fill="#cfd8dc"/><path id="Shape" d="m37.65 52.58-.9 4.03-.4 1.82c-.2039571.9142776-1.0132583 1.5658689-1.95 1.57h-1.4c-1.1032019-.0032948-1.9967052-.8967981-2-2v-8h.05c1.4975268 1.1062313 3.1956242 1.9111294 5 2.37.5246305.1251726 1.0608372.1955498 1.6.21z" fill="#f5f5f5"/><path id="Shape" d="m36.05 52.37c-1.8043758-.4588706-3.5024732-1.2637687-5-2.37h-.05v1.688c.6608552.2900244 1.3471091.5183293 2.05.682.5246305.1251726 1.0608372.1955498 1.6.21l-.9 4.03-.4 1.82c-.1412031.623735-.570246 1.1433371-1.156 1.4.253741.1126586.5283741.1705837.806.17h1.4c.9367417-.0041311 1.7460429-.6557224 1.95-1.57l.4-1.82.9-4.03c-.5391628-.0144502-1.0753695-.0848274-1.6-.21z" fill="#cfd8dc"/><g fill="#000"><path id="Shape" d="m23.9 22.028c-.3973294-1.9831732-1.9477258-3.5331752-3.931-3.93-2.1668943-.4336859-4.362224.6024173-5.4048524 2.550863-1.0426284 1.9484456-.6866849 4.349755.8763248 5.9119697 1.5630098 1.5622147 3.9644999 1.9169364 5.9124148.8733168s2.9829011-3.2394761 2.5481128-5.4061495zm-2.053.078c-.2654507.6111289-.9052353.9708618-1.5653196.8801353-.6600844-.0907265-1.1790892-.6097313-1.2698157-1.2698157-.0907265-.6600843.2690064-1.2998689.8801353-1.5653196.9324106.2930442 1.6630026 1.0228895 1.957 1.955zm-2.847 3.894c-1.2675443.0054489-2.4004952-.7897077-2.826279-1.9836116-.4257837-1.1939039-.0516666-2.5265285.933279-3.3243884-.0675419.264145-.1034604.5353795-.107.808 0 1.9329966 1.5670034 3.5 3.5 3.5.2726205-.0035396.543855-.0394581.808-.107-.5638694.6971096-1.4113958 1.1036139-2.308 1.107z"/><path id="Shape" d="m61.03 7.384c-.0713162-2.37858504-1.3938106-4.54256305-3.478-5.691-3.469-1.9-7.461.134-11.3 5.721-9.6401218-4.55140276-20.8108782-4.55140276-30.451 0-3.849-5.582-7.843-7.614-11.301-5.723-2.08467103 1.14272743-3.40947671 3.30281111-3.483 5.679-.234 3.521 1.657 7.434 4.739 10-.80955704 1.7326927-1.39397359 3.561893-1.739 5.443-4.074 21.8-3.025 29.76 4.488 34.053 2.3631135 1.3146636 5.0345687 1.974069 7.738 1.91 2.6259482-.0804376 5.2397113-.3919743 7.811-.931l.426-.076.2.881c.3009592 1.3716924 1.5156795 2.3492927 2.92 2.35h1.4c.740399-.0026037 1.4533329-.2806479 2-.78.5466671.4993521 1.259601.7773963 2 .78h1.4c1.4076769.0004629 2.625564-.9797572 2.926-2.355l.2-.883.478.085c5.17.926 10.519 1.885 15.546-.979 7.512-4.292 8.56-12.248 4.487-34.052-.3455586-1.8839214-.9309882-3.7158255-1.742-5.451 3.072-2.565 4.964-6.465 4.735-9.981zm-58.017.116c.0369561-1.69079518.96956109-3.23460107 2.449-4.054 3.133-1.72 6.527 2 8.575 4.923-.566.338-1.12.71-1.667 1.1-1.1-1.546-2.981-3.844-4.7-4.38-.41261728-.14938158-.87016175-.10875163-1.25.111-.775.424-1.644 1.372-1.373 3.466.30727381 2.0030806 1.2899127 3.8409858 2.785 5.209-.40242087.5471735-.77657682 1.1145822-1.121 1.7-2.36968691-2.0096838-3.72446047-4.9679846-3.698-8.075zm6.11 4.838c-1.10934477-1.0393558-1.84440483-2.4159676-2.091-3.916-.12651916-.46299826-.04783624-.95804499.216-1.359 1.43298922.94111324 2.64290345 2.18413373 3.545 3.642-.5872277.5132369-1.14479448 1.0594519-1.67 1.636zm28.038 18.95c-.8650316.735354-1.8278707 1.3471825-2.861 1.818l-.354.183c-1.8584649.9443172-4.0573516.9387372-5.911-.015l-.325-.168c-1.0345785-.469722-1.9990829-1.0805299-2.866-1.815-.479-.443-1.241-1.48-.7-2.243.7070711-.7530226 1.630644-1.2677494 2.643-1.473 1.2886446-.347729 2.6145912-.5384451 3.949-.568.0658438-.0056029.1319249-.0079391.198-.007h.066c.087 0 .18 0 .329.01 1.3128981.0311138 2.617279.2201399 3.885.563 1.0143816.2056402 1.9399481.7210084 2.649 1.475.537.763-.223 1.8-.702 2.243zm-13.181 1.883c.877197.6635638 1.8185462 1.2377534 2.81 1.714l.358.184c1.189104.6076881 2.5056154.9240484 3.841.923 1.3562464-.0007936 2.692917-.323651 3.9-.942l.32-.165c1.0043896-.4812012 1.9567166-1.0642586 2.842-1.74 2.881 2.654 7.791 8.35 5.084 14.449-1.458 3.282-3.7 4.526-6.866 3.8-3.13-.706-4.4-2.367-5.22-2.385-.807-.042-2.153 1.681-5.274 2.386-3.159.721-5.4-.521-6.862-3.8-2.713-6.111 2.192-11.785 5.067-14.424zm5.02 25.829h-1.4c-.4683856-.0017964-.8727682-.3284611-.973-.786l-.392-1.758v-.006-.01l-.664-2.981c.216-.034.431-.063.652-.113 1.3251283-.3198438 2.5972163-.8290832 3.777-1.512v6.166c0 .5522847-.4477153 1-1 1zm5.4 0h-1.4c-.5522847 0-1-.4477153-1-1v-6.194c1.1935299.6966878 2.4824893 1.2151689 3.826 1.539.2.047.405.082.6.115l-.658 2.959c-.0030943.0064876-.0057665.0131681-.008.02v.014l-.39 1.755c-.0975546.4588309-.5009284.7881836-.97.792zm18.155-3.869c-4.4 2.5-9.381 1.61-14.2.747l-.4-.07.5-2.247c2.832-.209 5.094-1.973 6.508-5.155 3.221-7.255-2.321-13.75-5.556-16.732.809084-1.120638.8440722-2.6239342.088-3.781-.9573527-1.146588-2.2731471-1.9371215-3.735-2.244-1.4065218-.384378-2.854365-.5972566-4.312-.634-.2798629-.0229679-.5611371-.0229679-.841 0-1.4788153.0360178-2.9478335.2509142-4.375.64-1.4602464.3051716-2.7750148 1.0936099-3.732 2.238-.7632299 1.1707989-.7201935 2.6922178.108 3.818-3.233 2.974-8.746 9.437-5.526 16.7 1.4 3.16 3.65 4.907 6.452 5.137l.506 2.275-.343.061c-4.824.863-9.812 1.757-14.2-.747-6.566-3.757-7.388-11.221-3.514-31.953.5564242-3.2360414 1.93056046-6.2762146 3.992-8.832.007-.009.017-.012.024-.02s.007-.018.012-.026c.7725308-.9372905 1.6346092-1.7970245 2.574-2.567.0295707-.0101946.0586077-.0218762.087-.035.0799728-.0581445.1504726-.128307.209-.208.8825146-.6947761 1.8187886-1.3184014 2.8-1.865.1127836-.02230182.2207633-.06427511.319-.124.044295-.03613573.0851371-.07630834.122-.12 4.6118756-2.28321209 9.6982026-3.44377459 14.844-3.387h.119c.216-.006 21.668-.555 24.981 17.184 3.874 20.732 3.053 28.196-3.511 31.947zm-1.3-44.426c.904588-1.45642189 2.1156836-2.69822998 3.549-3.639.2590504.40516459.3349522.90088629.209 1.365-.2477828 1.49740107-.9823711 2.8713273-2.09 3.909-.5234912-.5758463-1.0790399-1.1217129-1.664-1.635zm2.958 3.171c1.4944051-1.3642854 2.4777344-3.1982811 2.787-5.198.269-2.093-.594-3.043-1.382-3.481-.3847676-.21729907-.8457732-.25388682-1.26-.1-1.725.543-3.583 2.829-4.679 4.375-.544-.392-1.1-.763-1.661-1.1 2.04-2.924 5.425-6.652 8.57-4.924 1.4792612.82528702 2.4096024 2.37344484 2.444 4.067.0194265 3.0996671-1.3354985 6.0486431-3.7 8.053-.3424157-.582741-.7145739-1.1474869-1.115-1.692z"/><path id="Shape" d="m43.049 18c-.3251544.0017089-.6493631.0352015-.968.1h-.005c-2.606834.5300633-4.3392469 3.0122365-3.937748 5.6419417.4014988 2.6297051 2.7956665 4.481839 5.4419061 4.209872 2.6462397-.2719671 4.6136317-2.57236 4.4718518-5.2287578-.1417799-2.6563977-2.3428551-4.734307-5.0030099-4.7230559zm-.894 2.151c.6114515.2653059.971447.9052936.8806617 1.5656103-.0907852.6603167-.6101391 1.179405-1.2705022 1.2698524-.660363.0904473-1.3001665-.2698756-1.5651595-.8814627.2934285-.9315346 1.0233154-1.6610482 1.955-1.954zm.894 5.849c-.8966042-.0033861-1.7441306-.4098904-2.308-1.107.264145.0675419.5353795.1034604.808.107 1.9329966 0 3.5-1.5670034 3.5-3.5-.0035396-.2726205-.0394581-.543855-.107-.808.9849456.7978599 1.3590627 2.1304845.933279 3.3243884-.4257838 1.1939039-1.5587347 1.9890605-2.826279 1.9836116z"/><path id="Shape" d="m29.447 30.105-2-1c-.4942949-.2468713-1.0951287-.0462949-1.342.448s-.0462949 1.0951287.448 1.342l2 1c.3197527.1596977.7004141.1366785.9985927-.0603866.2981787-.1970651.4685741-.5382372.4470001-.895-.0215741-.3567629-.2318401-.6749157-.5515928-.8346134z"/><path id="Shape" d="m34.553 29.105-2 1c-.4942949.2468713-.6948713.8477051-.448 1.342s.8477051.6948713 1.342.448l2-1c.4942949-.2468713.6948713-.8477051.448-1.342s-.8477051-.6948713-1.342-.448z"/><circle id="Oval" cx="22" cy="44" r="1"/><circle id="Oval" cx="24" cy="48" r="1"/><circle id="Oval" cx="27" cy="45" r="1"/><circle id="Oval" cx="40" cy="44" r="1"/><circle id="Oval" cx="38" cy="48" r="1"/><circle id="Oval" cx="35" cy="45" r="1"/></g></g></g></svg>