<svg height="512" viewBox="0 0 60 60" width="512" xmlns="http://www.w3.org/2000/svg"><g id="Page-1" fill="none" fill-rule="evenodd"><g id="023---Canadian-Beer" fill-rule="nonzero"><path id="Shape" d="m27 25v30c0 2.209139-1.790861 4-4 4h-18c-2.209139 0-4-1.790861-4-4v-30c-.00179288-2.843403 1.50580308-5.4740818 3.96-6.91 2.44812268-1.3499572 3.98866441-3.904816 4.04-6.7v-6.39h10v6.39c.0513356 2.795184 1.5918773 5.3500428 4.04 6.7 2.4541969 1.4359182 3.9617929 4.066597 3.96 6.91z" fill="#91562d"/><path id="Shape" d="m23.04 18.09c-2.4481227-1.3499572-3.9886644-3.904816-4.04-6.7v-6.39h-3v6.39c.0513356 2.795184 1.5918773 5.3500428 4.04 6.7 2.4541969 1.4359182 3.9617929 4.066597 3.96 6.91v30c0 2.209139-1.790861 4-4 4h3c2.209139 0 4-1.790861 4-4v-30c.0017929-2.843403-1.5058031-5.4740818-3.96-6.91z" fill="#6d4122"/><ellipse id="Oval" cx="14" cy="35.938" fill="#ffe0b2" rx="9" ry="14.938"/><path id="Shape" d="m14 21c-.5078583.0061273-1.0125084.0814884-1.5.224 4.255 1.187 7.5 7.314 7.5 14.714s-3.245 13.526-7.5 14.713c.4874916.1425116.9921417.2178727 1.5.224 4.971 0 9-6.688 9-14.937s-4.029-14.938-9-14.938z" fill="#dfc49c"/><path id="Shape" d="m22.93 36.53c-.39.3-.78.62-1.16.93-1.08.87-2.16 1.75-3.24 2.62-.2.17-.22.24-.13.48l.18.48c.08.24.16.47.25.71.0202683.0566649.0084809.1198524-.0308544.1653985s-.1001339.0664056-.1591456.0546015l-4.64-.99-4.64.99c-.05901169.0118041-.11981034-.0090554-.15914564-.0546015s-.05112264-.1087336-.03085436-.1653985c.09-.24.17-.47.25-.71l.18-.48c.09-.24.07-.31-.13-.48-1.08-.87-2.16-1.75-3.24-2.62-.38-.31-.77-.63-1.16-.93-.11-.09-.09-.12.03-.17.27-.13.54-.26.82-.39.09899821-.0255925.18075002-.0952489.22173484-.1889285.04098483-.0936796.03665829-.2009953-.01173484-.2910715l-.79-2.43c-.01656055-.0582037-.00187615-.1208326.03882984-.1656092s.10165622-.0653458.16117016-.0543908c.25.05.49.11.74.16l1.54.33c.08718653.0363277.18586392.0329291.27034442-.0093112.0844805-.0422402.14640584-.1191429.16965558-.2106888.14-.34.29-.67.42-1.01.05-.11.08-.14.17-.03.62.66 1.24 1.33 1.86 1.99.0261098.0241035.0495757.0509217.07.08.0962328.1185367.262482.1531941.3980625.0829828s.203213-.2259861.1619375-.3729828c-.05-.27-.1-.53-.15-.8-.17-.83-.49-2.46-.78-3.93-.0085176-.0660054.0204977-.1312488.0752168-.1691313.0547191-.0378824.1260004-.0420751.1847832-.0108687.58.35 1.1.64 1.23.72.0821757.0677605.1926107.090348.2947925.0602945.1021819-.0300535.1828027-.1088338.2152075-.2102945.32-.62.91-1.8 1.44-2.85.029545-.0553968.087217-.09.15-.09s.120455.0346032.15.09c.53 1.05 1.12 2.23 1.44 2.85.0324048.1014607.1130256.180241.2152075.2102945.1021818.0300535.2126168.007466.2947925-.0602945.13-.08.65-.37 1.23-.72.0587828-.0312064.1300641-.0270137.1847832.0108687.0547191.0378825.0837344.1031259.0752168.1691313-.29 1.47-.61 3.1-.78 3.93-.05.27-.1.53-.15.8-.0412755.1469967.026357.3027715.1619375.3729828s.3018297.0355539.3980625-.0829828c.0204243-.0290783.0438902-.0558965.07-.08.62-.66 1.24-1.33 1.86-1.99.09-.11.12-.08.17.03.13.34.28.67.42 1.01.0232497.0915459.0851751.1684486.1696556.2106888.0844805.0422403.1831579.0456389.2703444.0093112l1.54-.33c.25-.05.49-.11.74-.16.0595139-.010955.1204642.0096142.1611702.0543908.0407059.0447766.0553904.1074055.0388298.1656092l-.79 2.43c-.0483931.0900762-.0527197.1973919-.0117348.2910715.0409848.0936796.1227366.163336.2217348.1889285.28.13.55.26.82.39.12.05.14.08.03.17z" fill="#f44335"/><path id="Shape" d="m12.59 29.51c.0324048.1014607.1130256.180241.2152075.2102945.1021818.0300535.2126168.007466.2947925-.0602945.13-.08.65-.37 1.23-.72.0587828-.0312064.1300641-.0270137.1847832.0108687.0547191.0378825.0837344.1031259.0752168.1691313-.29 1.47-.61 3.1-.78 3.93-.05.27-.1.53-.15.8-.0412755.1469967.026357.3027715.1619375.3729828s.3018297.0355539.3980625-.0829828c.0204243-.0290783.0438902-.0558965.07-.08.62-.66 1.24-1.33 1.86-1.99.09-.11.12-.08.17.03.13.34.28.67.42 1.01.0133536.0260712.0280396.051438.044.076l.026-.136c.17-.83.49-2.46.78-3.93.0085176-.0660054-.0204977-.1312488-.0752168-.1691313-.0547191-.0378824-.1260004-.0420751-.1847832-.0108687-.58.35-1.1.64-1.23.72-.0821757.0677605-.1926107.090348-.2947925.0602945-.1021819-.0300535-.1828027-.1088338-.2152075-.2102945-.32-.62-.91-1.8-1.44-2.85-.029545-.0553968-.087217-.09-.15-.09s-.120455.0346032-.15.09c-.488.967-1.018 2.025-1.35 2.674z" fill="#c81e1e"/><path id="Shape" d="m22.9 36.36c-.27-.13-.54-.26-.82-.39-.0989982-.0255925-.18075-.0952489-.2217348-.1889285-.0409849-.0936796-.0366583-.2009953.0117348-.2910715l.79-2.43c.0165606-.0582037.0018761-.1208326-.0388298-.1656092-.040706-.0447766-.1016563-.0653458-.1611702-.0543908-.25.05-.49.11-.74.16l-1.54.33c-.0871865.0363277-.1858639.0329291-.2703444-.0093112-.0844805-.0422402-.1464059-.1191429-.1696556-.2106888-.14-.34-.29-.67-.42-1.01-.05-.11-.08-.14-.17-.03-.326.347-.653.7-.979 1.048l.549-.118c.25-.05.49-.11.74-.16.0595139-.010955.1204642.0096142.1611702.0543908.0407059.0447766.0553904.1074055.0388298.1656092l-.79 2.43c-.0483931.0900762-.0527197.1973919-.0117348.2910715.0409848.0936796.1227366.163336.2217348.1889285.28.13.55.26.82.39.12.05.14.08.03.17-.39.3-.78.62-1.16.93-1.08.87-2.16 1.75-3.24 2.62-.2.17-.22.24-.13.48l.18.48c.034.1.071.2.105.3l2.955.63c.0590117.0118041.1198103-.0090554.1591456-.0546015s.0511227-.1087336.0308544-.1653985c-.09-.24-.17-.47-.25-.71l-.18-.48c-.09-.24-.07-.31.13-.48 1.08-.87 2.16-1.75 3.24-2.62.38-.31.77-.63 1.16-.93.11-.09.09-.12-.03-.17z" fill="#c81e1e"/><path id="Shape" d="m10 56h-5c-.55228475 0-1-.4477153-1-1v-5c0-.5522847.44771525-1 1-1s1 .4477153 1 1v4h4c.5522847 0 1 .4477153 1 1s-.4477153 1-1 1z" fill="#6d4122"/><path id="Shape" d="m59 24v33c-.0032948 1.1032019-.8967981 1.9967052-2 2h-20c-1.1032019-.0032948-1.9967052-.8967981-2-2v-3.68c.935816.4503123 1.9614794.682796 3 .68h3c1.0103702-.1239764 1.7695922-.982052 1.7695922-2s-.759222-1.8760236-1.7695922-2h-3c-1.6548028-.0049422-2.9950578-1.3451972-3-3v-13c.0049422-1.6548028 1.3451972-2.9950578 3-3h3c1.0103702-.1239764 1.7695922-.982052 1.7695922-2s-.759222-1.8760236-1.7695922-2h-3c-1.0385206-.002796-2.064184.2296877-3 .68v-3.68c-.0000499-.5646519.2398966-1.1027138.66-1.48.3632774-.3390428.8431167-.5252492 1.34-.52h12v8.5c0 1.3807119 1.1192881 2.5 2.5 2.5s2.5-1.1192881 2.5-2.5v-8.5h3c.4968833-.0052492.9767226.1809572 1.34.52.4201034.3772862.6600499.9153481.66 1.48z" fill="#ff9801"/><path id="Shape" d="m58.34 22.52c-.3632774-.3390428-.8431167-.5252492-1.34-.52l-3-.000108c.4968833-.0051412.9767226.1810652 1.34.520108.4201034.3772862.6600499.9153481.66 1.48v33c-.0032948 1.1032019-.8967981 1.9967052-2 2h3c1.1032019-.0032948 1.9967052-.8967981 2-2v-33c.0000499-.5646519-.2398966-1.1027138-.66-1.48z" fill="#f57c00"/><path id="Shape" d="m59 20.3c.0023695.7886973-.2271431 1.5606943-.66 2.22-.3632774-.3390428-.8431167-.5252492-1.34-.52h-3v8.5c0 1.3807119-1.1192881 2.5-2.5 2.5s-2.5-1.1192881-2.5-2.5v-8.5h-12c-.4968833-.0052492-.9767226.1809572-1.34.52-.4328569-.6593057-.6623695-1.4313027-.66-2.22.0049528-2.0493817 1.5196056-3.7816325 3.55-4.06.5161855-1.38436 1.8325928-2.3070382 3.31-2.32.3312785-2.0229675 1.9412904-3.5944502 3.9716872-3.876641 2.0303968-.2821907 4.0079296.7906842 4.8783128 2.646641 1.2238405-.4635243 2.5968691-.3006933 3.678346.4362247 1.0814769.7369179 1.7353227 1.9551984 1.751654 3.2637753 1.7023373.5424871 2.8586463 2.1233152 2.86 3.91z" fill="#ffe0b2"/><path id="Shape" d="m51 30.5c-.0011004.7838584-.3716862 1.5213242-1 1.99.7546298.5736026 1.769338.6694183 2.6179992.2472094.8486611-.422209 1.3843097-1.2893271 1.3820008-2.2372094l.0000074-8.5h-3.0000074z" fill="#dfc49c"/><path id="Shape" d="m56.14 16.39c-.0163313-1.3085769-.6701771-2.5268574-1.751654-3.2637753-1.0814769-.736918-2.4545055-.899749-3.678346-.4362247-.7738746-1.6414587-2.4252637-2.689156-4.24-2.69-.5087504.0028581-1.0135384.0896925-1.494.257 1.2026271.4082949 2.1888244 1.2859167 2.734 2.433 1.2238405-.4635243 2.5968691-.3006933 3.678346.4362247 1.0814769.7369179 1.7353227 1.9551984 1.751654 3.2637753 1.7023373.5424871 2.8586463 2.1233152 2.86 3.91.0011039.5870847-.1262038 1.1673075-.373 1.7h1.373c.4968833-.0052492.9767226.1809572 1.34.52.4328569-.6593057.6623695-1.4313027.66-2.22-.0013537-1.7866848-1.1576627-3.3675129-2.86-3.91z" fill="#dfc49c"/><path id="Shape" d="m55 56h-3c-.5522847 0-1-.4477153-1-1s.4477153-1 1-1h2v-2c0-.5522847.4477153-1 1-1s1 .4477153 1 1v3c0 .5522847-.4477153 1-1 1z" fill="#f5f5f5"/><path id="Shape" d="m42.77 52c.0570898 1.0388332-.7319311 1.9303822-1.77 2h-3c-1.0385206.002796-2.064184-.2296877-3-.68-2.441393-1.1580537-3.9982413-3.617874-4-6.32v-13c.0017587-2.702126 1.558607-5.1619463 4-6.32.935816-.4503123 1.9614794-.682796 3-.68h3c1.0103702.1239764 1.7695922.982052 1.7695922 2s-.759222 1.8760236-1.7695922 2h-3c-1.6548028.0049422-2.9950578 1.3451972-3 3v13c.0049422 1.6548028 1.3451972 2.9950578 3 3h3c1.0380689.0696178 1.8270898.9611668 1.77 2z" fill="#ffe0b2"/><path id="Shape" d="m19.72 5h-11.44c-.30734096-.00023752-.59750202-.14178892-.78686621-.38386273-.18936418-.2420738-.25689573-.55777894-.18313379-.85613727l.5-2c.11029277-.44612239.51044635-.75964478.97-.76h10.44c.4595536.00035522.8597072.31387761.97.76l.5 2c.0737619.29835833.0062304.61406347-.1831338.85613727-.1893642.24207381-.4795252.38362521-.7868662.38386273z" fill="#f44335"/><path id="Shape" d="m20.69 3.76-.5-2c-.1102928-.44612239-.5104464-.75964478-.97-.76h-3c.4595536.00035522.8597072.31387761.97.76l.5 2c.0737619.29835833.0062304.61406347-.1831338.85613727-.1893642.24207381-.4795252.38362521-.7868662.38386273h3c.307341-.00023752.597502-.14178892.7868662-.38386273.1893642-.2420738.2568957-.55777894.1831338-.85613727z" fill="#c81e1e"/><g fill="#000"><path id="Shape" d="m23.306 35.441c-.108-.047-.214-.1-.32-.146l.62-1.92c.1311088-.3958933.0413827-.8316507-.235465-1.1435423-.2768476-.3118917-.6988841-.4526769-1.107535-.3694577l-1.8.383c-.075-.175-.149-.353-.224-.538-.1295729-.3597668-.4408165-.6233905-.817-.692-.3781454-.0608682-.7605626.0806413-1.008.373l-.319.345.475-2.42c.0877601-.4500147-.095887-.9097547-.4695444-1.1754522-.3736573-.2656976-.8682081-.2882055-1.2644556-.0575478l-.654.379c-.324-.638-.748-1.477-1.136-2.244-.1981915-.3939394-.6015146-.6425167-1.0425-.6425167s-.8443085.2485773-1.0425.6425167c-.389.769-.813 1.609-1.137 2.245l-.653-.379c-.3962984-.2312811-.8913034-.2090974-1.26532492.0567058-.37402149.2658032-.55776206.7259787-.46967508 1.1762942l.475 2.42-.324-.351c-.2466126-.296219-.63414145-.435904-1.01303058-.3651476s-.68988577.340889-.81296942.7061476c-.071.175-.144.347-.218.522l-1.792-.381c-.40775411-.0869314-.83094477.0498793-1.11064432.3590534-.27969955.3091742-.37356887.743911-.24635568 1.1409466l.62 1.935c-.106.05-.214.1-.323.147-.37019154.1389108-.63295457.4714787-.68246211.8637631-.04950754.3922843.12239026.7797078.44646211 1.0062369.232.182.461.368.689.553l3.377 2.73-.041.112c-.079.227-.161.453-.249.691-.14413609.3989353-.06086291.8446465.21759005 1.1646286.27845297.3199822.70838949.464022 1.12340995.3763714l3.428-.726v3.765c0 .5522847.4477153 1 1 1s1-.4477153 1-1v-3.765l3.437.731c.4151118.083955.8431668-.0631757 1.1189415-.3846015.2757746-.3214259.3561333-.7668706.2100585-1.1643985-.085-.23-.167-.456-.248-.69l-.039-.106 3.377-2.737c.228-.185.457-.371.688-.552.3250837-.2265889.4974856-.6149284.4475087-1.0080241s-.3140679-.7259409-.6855087-.8639759zm-13.22-.585c.4074425.4207553 1.0437937.5218791 1.5615971.2481566.5178034-.2737226.7926227-.8565117.6744029-1.4301566l-.584-3c.2393595.0740283.495088.076808.736.008.3642209-.1116503.6642557-.3720921.826-.717.17-.335.422-.83.7-1.38.278.551.531 1.047.7 1.385.1615802.3428278.4604918.6014245.823.712.2406706.0701892.496708.0677541.736-.007l-.579 2.976c-.1300271.5758621.1390434 1.1678963.6583812 1.448632.5193377.2807357 1.1620434.1815756 1.5726188-.242632l.1-.111.289-.309.647-.692c.3037636.4812299.8852178.7089493 1.435.562l.875-.188-.343 1.062c-.1879474.4945241-.0614941 1.0535187.321 1.419l-3.334 2.7c-.4466448.3058733-.6528006.8594916-.515 1.383l-3.183-.677h-.017c-.1392467-.0279656-.2829163-.0252355-.421.008l-3.165.673c.1387356-.5222968-.0663156-1.0753745-.512-1.381l-3.329-2.706c.38148647-.365664.5074724-.9239391.32-1.418l-.343-1.063.882.189c.54795051.1425054 1.12511917-.0860162 1.427-.565l.648.694.289.309z"/><path id="Shape" d="m21.53 44.273c-.5009339-.2316758-1.094848-.0137133-1.327.487-1.52 3.281-3.839 5.24-6.203 5.24s-4.683-1.959-6.2-5.24c-.14495808-.3325375-.45863543-.5604947-.81968344-.5956848-.36104801-.03519-.71283992.1279065-.9192822.4261943-.20644227.2982877-.2351565.6849833-.07503436 1.0104905 1.881 4.066 4.803 6.399 8.014 6.399s6.133-2.333 8.017-6.4c.2316758-.5009339.0137133-1.094848-.487-1.327z"/><path id="Shape" d="m5.772 29.831c.52520534.1698848 1.0887292-.1179197 1.259-.643 1.437-4.434 4.108-7.188 6.969-7.188s5.532 2.754 6.969 7.188c.0957671.3569027.3805502.6319024.7405813.7151396.3600311.0832373.7366201-.0388569.9793236-.317507.2427034-.2786501.3119572-.6684323.1800951-1.0136326-1.711-5.287-5.111-8.572-8.869-8.572s-7.158 3.285-8.871 8.572c-.16988482.5252053.11791967 1.0887292.643 1.259z"/><path id="Shape" d="m23.544 17.227c-2.1425539-1.1693877-3.4948266-3.3965929-3.544-5.837v-5.422c.5609892-.07449989 1.0633771-.38525104 1.3805452-.85393376s.4188632-1.05059164.2794548-1.59906624l-.5-2c-.2226204-.89062096-1.0229774-1.51532-1.941-1.515h-10.438c-.91802257-.00032-1.71837957.62437904-1.941 1.515l-.5 2c-.13940839.5484746-.03771326 1.13038352.27945483 1.59906624s.81955599.77943387 1.38054517.85393376v5.422c-.0483351 2.4411894-1.40178031 4.6690686-3.546 5.837-2.7533515 1.6224547-4.44643776 4.5771829-4.454 7.773v30c.00330612 2.7600532 2.23994685 4.9966939 5 5h18c2.7600532-.0033061 4.9966939-2.2399468 5-5v-30c-.0075775-3.1963321-1.7015835-6.1513385-4.456-7.773zm-14.763-15.227h10.438l.5 2h-11.438zm17.219 53c0 1.6568542-1.3431458 3-3 3h-18c-1.65685425 0-3-1.3431458-3-3v-30c.00585648-2.4859349 1.32254333-4.7844353 3.464-6.047 2.76010823-1.5238577 4.4913976-4.4104851 4.536-7.563v-5.39h8v5.39c.0446119 3.1519774 1.7749634 6.0383136 4.534 7.563 2.1426698 1.2616253 3.4603294 3.5604964 3.466 6.047z"/><path id="Shape" d="m57.086 15.69c-.3735832-2.4448299-2.4728023-4.2528916-4.946-4.26-.3184219-.000106-.6361502.0296915-.949.089-1.0589652-1.57016024-2.82712-2.51360063-4.721-2.519-2.4914131-.00882227-4.6939926 1.6166977-5.42 4-1.3691256.2612312-2.545967 1.1291517-3.2 2.36-2.2586847.5775877-3.8415975 2.6086498-3.85 4.94-.0007997.7302266.1571827 1.4518957.463 2.115-.3008518.4740378-.4613731 1.0235546-.463 1.585v3.082c-2.4720545 1.4272382-3.996358 4.0635212-4 6.918v13c.003642 2.8544788 1.5279455 5.4907618 4 6.918v3.082c0 1.6568542 1.3431458 3 3 3h20c1.6568542 0 3-1.3431458 3-3v-33c-.0016269-.5614454-.1621482-1.1109622-.463-1.585 1.1614969-2.5346632.0690429-5.5321143-2.451-6.725zm-25.086 31.31v-13c.0033074-3.3123376 2.6876624-5.9966926 6-6h3c.4543337.1194785.7710247.530219.7710247 1s-.316691.8805215-.7710247 1h-3c-2.209139 0-4 1.790861-4 4v13c0 2.209139 1.790861 4 4 4h3c.4543337.1194785.7710247.530219.7710247 1s-.316691.8805215-.7710247 1h-3c-3.3123376-.0033074-5.9966926-2.6876624-6-6zm26 10c0 .5522847-.4477153 1-1 1h-20c-.5522847 0-1-.4477153-1-1v-2.263c.6528012.1722015 1.3248727.2605789 2 .263h3c1.5621151-.1276524 2.764847-1.4326779 2.764847-3s-1.2027319-2.8723476-2.764847-3h-3c-1.1045695 0-2-.8954305-2-2v-13c0-1.1045695.8954305-2 2-2h3c1.5621151-.1276524 2.764847-1.4326779 2.764847-3s-1.2027319-2.8723476-2.764847-3h-3c-.6751273.0024211-1.3471988.0907985-2 .263v-2.263c0-.5522847.4477153-1 1-1h8c.5522847 0 1-.4477153 1-1s-.4477153-1-1-1h-8c-.2990882.004118-.5958119.0536843-.88.147-.2481008-.8640576-.107611-1.7933239.3848265-2.5454241.4924375-.7521003 1.2879954-1.2524609 2.1791735-1.3705759.364233-.0503393.6714596-.2965046.8-.641.3728858-.9943217 1.3181312-1.6575821 2.38-1.67.4878297-.003474.9019576-.3584408.98-.84.2622321-1.589803 1.5287244-2.8238295 3.1247997-3.0446976 1.5960753-.220868 3.1500901.6228513 3.8342003 2.0816976.2227413.4708735.7696421.6918963 1.257.508.3440242-.1309888.7088844-.1987438 1.077-.2 1.6430438.0042318 2.9787026 1.3260888 3 2.969.0043111.433044.2868751.8141018.7.944 1.5978792.5042443 2.5040084 2.1888288 2.044 3.8-.2849809-.0903612-.5820384-.1368923-.881-.138h-2v-1c0-.5522847-.4477153-1-1-1s-1 .4477153-1 1v10.5c0 .8284271-.6715729 1.5-1.5 1.5s-1.5-.6715729-1.5-1.5v-10.5c0-.5522847-.4477153-1-1-1s-1 .4477153-1 1v10.5c0 1.9329966 1.5670034 3.5 3.5 3.5s3.5-1.5670034 3.5-3.5v-7.5h2c.5522847 0 1 .4477153 1 1z"/></g></g></g></svg>