<svg height="512" viewBox="0 0 60 60" width="512" xmlns="http://www.w3.org/2000/svg"><g id="Page-1" fill="none" fill-rule="evenodd"><g id="029---Wooly-Hat" fill-rule="nonzero"><rect id="Rectangle-path" fill="#f44335" height="12" rx="3" width="58" x="1" y="47"/><path id="Shape" d="m56 47h-3c1.6568542 0 3 1.3431458 3 3v6c0 1.6568542-1.3431458 3-3 3h3c1.6568542 0 3-1.3431458 3-3v-6c0-1.6568542-1.3431458-3-3-3z" fill="#c81e1e"/><path id="Shape" d="m56 47h-52c0-19.64 7.13-28.83 17.12-32.43 2.1144061-.754852 4.3035454-1.2811841 6.53-1.57h4.7c2.2260266.2911319 4.4149223.8174055 6.53 1.57 9.99 3.61 17.12 12.79 17.12 32.43z" fill="#f5f5f5"/><path id="Shape" d="m38.88 14.57c-2.1150777-.7525945-4.3039734-1.2788681-6.53-1.57h-3c2.2260266.2911319 4.4149223.8174055 6.53 1.57 9.99 3.61 17.12 12.79 17.12 32.43h3c0-19.64-7.13-28.82-17.12-32.43z" fill="#cfd8dc"/><path id="Shape" d="m30 40-7.212 1.589c-.0948001.0180686-.1919723-.0164262-.2541612-.0902237s-.0797142-.1754105-.0458388-.2657763c.136-.378.268-.75.394-1.123.089-.259.184-.512.273-.771.137-.389.111-.5-.21-.767-1.6773333-1.392-3.3523333-2.786-5.025-4.182-.605-.5-1.2-1-1.808-1.495-.168-.134-.142-.188.037-.269.431-.2.851-.405 1.277-.61.157063-.0456988.2850861-.159887.348372-.3107249.0632859-.1508378.0550644-.3221892-.022372-.4662751l-1.22-3.88c-.0298112-.0892-.010303-.1875118.0513086-.2585705.0616117-.0710588.1561673-.1043006.2486914-.0874295.389.081.768.168 1.151.249.8.172 1.6.35 2.4.528.1352953.054282.287543.0468147.4168769-.0204467.1293339-.0672613.2228727-.1876176.2561231-.3295533.226-.535.452-1.069.668-1.614.073-.178.11-.221.263-.054.956 1.069 1.923 2.126 2.891 3.189.036.044.073.081.11.125.1489954.1825391.4052128.2362823.615.129.2087704-.1179631.310575-.3627889.247-.594-.074-.426-.158-.852-.237-1.278-.252-1.318-.751-3.93-1.2-6.273-.0217923-.1019031.0186368-.2070621.1030811-.2681219.0844443-.0610597.1969757-.0665028.2869189-.0138781.916.547 1.717 1.023 1.923 1.142.1266227.1081897.2996041.1444936.4590391.0963394.1594349-.0481542.2833985-.1741446.3289609-.3343394.494-.994 1.421-2.874 2.243-4.544.042756-.0899171.1334351-.1472074.233-.1472074s.190244.0572903.233.1472074c.822 1.67 1.749 3.55 2.243 4.544.0455624.1601948.169526.2861852.3289609.3343394.159435.0481542.3324164.0118503.4590391-.0963394.206-.119 1.007-.595 1.923-1.142.0899432-.0526247.2024746-.0471816.2869189.0138781.0844443.0610598.1248734.1662188.1030811.2681219-.447 2.343-.946 4.955-1.2 6.273-.079.426-.163.852-.237 1.278-.063575.2312111.0382296.4760369.247.594.2117677.1117077.4730038.0576155.623-.129.037-.044.074-.081.11-.125.968-1.063 1.935-2.12 2.891-3.189.153-.167.19-.124.263.054.216.545.442 1.079.668 1.614.0332504.1419357.1267892.262292.2561231.3295533.1293339.0672614.2815816.0747287.4168769.0204467.8-.178 1.6-.356 2.4-.528.383-.081.762-.168 1.151-.249.0925241-.0168711.1870797.0163707.2486914.0874295.0616116.0710587.0811198.1693705.0513086.2585705l-1.22 3.88c-.0774364.1440859-.0856579.3154373-.022372.4662751.0632859.1508379.191309.2650261.348372.3107249.426.2.846.415 1.277.61.179.081.2.135.037.269-.61.491-1.2 1-1.808 1.495-1.6706667 1.3933333-3.3456667 2.7873333-5.025 4.182-.321.265-.347.378-.21.767.089.259.184.512.273.771.126.373.258.745.394 1.123.0338754.0903658.0163501.1919788-.0458388.2657763s-.1593611.1082923-.2541612.0902237z" fill="#f44335"/><g fill="#c81e1e"><path id="Shape" d="m29.476 21.692c.0455624.1601948.169526.2861852.3289609.3343394.159435.0481542.3324164.0118503.4590391-.0963394.2-.113.938-.554 1.8-1.068-.511-1.034-1.2-2.433-1.831-3.714-.042756-.0899171-.1334351-.1472074-.233-.1472074s-.190244.0572903-.233.1472074c-.419.852-.867 1.752-1.267 2.572.387.78.734 1.485.976 1.972z"/><path id="Shape" d="m32.463 21.667c-.415 2.177-.853 4.469-1.084 5.675-.079.427-.163.853-.237 1.279-.063575.2312111.0382296.4760369.247.594.2087824.1051049.462524.0515326.611-.129.037-.044.074-.081.111-.125.828-.911 1.655-1.819 2.477-2.733.269-1.408.642-3.36.985-5.158.0217923-.1019031-.0186368-.2070621-.1030811-.2681219-.0844443-.0610597-.1969757-.0665028-.2869189-.0138781-.916.547-1.718 1.023-1.923 1.142-.1266227.1081897-.2996041.1444936-.4590391.0963394-.1594349-.0481542-.2833985-.1741446-.3289609-.3343394z"/><path id="Shape" d="m43.85 32.626c-.431-.2-.851-.405-1.277-.61-.157063-.0456988-.2850861-.159887-.348372-.3107249-.0632859-.1508378-.0550644-.3221892.022372-.4662751l1.22-3.88c.0298112-.0892.010303-.1875118-.0513086-.2585705-.0616117-.0710588-.1561673-.1043006-.2486914-.0874295-.389.081-.768.168-1.151.249-.541.116-1.084.237-1.626.358l-1.138 3.619c-.0774364.1440859-.0856579.3154373-.022372.4662751.0632859.1508379.191309.2650261.348372.3107249.426.2.846.415 1.277.61.179.081.2.134.037.269-.609.491-1.2 1-1.808 1.495-1.672 1.392-3.347 2.786-5.025 4.182-.321.265-.347.378-.21.767.089.259.184.512.273.771.1.287.2.575.3.864l2.792.615c.0948001.0180686.1919723-.0164262.2541612-.0902237s.0797142-.1754105.0458388-.2657763c-.136-.378-.268-.75-.394-1.123-.089-.259-.184-.512-.273-.771-.137-.389-.111-.5.21-.767 1.6773333-1.392 3.3523333-2.786 5.025-4.182.6-.5 1.2-1 1.808-1.495.165-.135.139-.188-.04-.269z"/></g><path id="Shape" d="m38 13h-.54l.47.27c.483894.28212.8281987.7532738.95 1.3-2.1150777-.7525945-4.3039734-1.2788681-6.53-1.57h-4.7c-2.2264546.2888159-4.4155939.815148-6.53 1.57.1218013-.5467262.466106-1.01788.95-1.3l.47-.27h-.54c-1.1045695 0-2-.8954305-2-2s.8954305-2 2-2h.54l-.47-.27c-.9045052-.57499196-1.1949604-1.76079356-.6585865-2.68872049.536374-.92792694 1.7088856-1.26808296 2.6585865-.77127951l.47.27-.27-.47c-.3941187-.61997815-.4166154-1.40612396-.0585958-2.04762564.3580197-.64150167 1.0389188-1.03508495 1.773496-1.02514215.7345771.00994281 1.4045741.42181102 1.7450998 1.07276779l.27.47v-.54c0-1.1045695.8954305-2 2-2s2 .8954305 2 2v.54l.27-.47c.3405257-.65095677 1.0105227-1.06282498 1.7450998-1.07276779.7345772-.0099428 1.4154763.38364048 1.773496 1.02514215.3580196.64150168.3355229 1.42764749-.0585958 2.04762564l-.27.47.47-.27c.9497009-.49680345 2.1222125-.15664743 2.6585865.77127951.5363739.92792693.2459187 2.11372853-.6585865 2.68872049l-.47.27h.54c1.1045695 0 2 .8954305 2 2s-.8954305 2-2 2z" fill="#f44335"/><path id="Shape" d="m40 11c-.0032948-1.10320187-.8967981-1.9967052-2-2h-.54l.47-.27c.9045052-.57499196 1.1949604-1.76079356.6585865-2.68872049-.536374-.92792694-1.7088856-1.26808296-2.6585865-.77127951l-.47.27.27-.47c.4905189-.8879634.2385555-2.00252377-.58622-2.59314476-.8247755-.59062098-1.9610995-.47021188-2.64378.28014476.5645826.64197306.6571039 1.57241566.23 2.313l-.27.47.47-.27c.9497009-.49680345 2.1222125-.15664743 2.6585865.77127951.5363739.92792693.2459187 2.11372853-.6585865 2.68872049l-.47.27h.54c1.1045695 0 2 .8954305 2 2s-.8954305 2-2 2h-.54l.47.27c.1274335.0745873.246165.1631329.354.264 1.2206225.2691653 2.423018.615188 3.6 1.036-.1218013-.5467262-.466106-1.01788-.95-1.3l-.474-.27h.54c1.1032019-.0032948 1.9967052-.8967981 2-2z" fill="#c81e1e"/><path id="Shape" d="m56.978 46.135c-.192-17.111-6.011-27.935-17.314-32.291-.039-.092-.059-.193-.106-.281.8947066-.5442862 1.4408236-1.515743 1.4408236-2.563 0-1.04725704-.546117-2.01871385-1.4408236-2.563.4990464-.91713443.4876954-2.0272617-.03-2.934-.3929409-.69103718-1.0468329-1.1954167-1.815-1.4-.2328027-.06218713-.4721155-.09675827-.713-.103-.0051732-.24044364-.0387392-.47943383-.1-.712-.204618-.76865747-.7089164-1.4231647-1.4-1.817-.9066508-.5183479-2.0172806-.52932549-2.934-.029-.5442862-.8947066-1.515743-1.44082361-2.563-1.44082361s-2.0187138.54611701-2.563 1.44082361c-.9170379-.49943405-2.0273662-.488081-2.934.03-.690784.39417953-1.1949727 1.04854451-1.4 1.817-.0632094.23199874-.0987893.47065266-.106.711-.2411008.00518356-.4807519.03874814-.714.1-.7681671.2045833-1.4220591.70896282-1.815 1.4-.5176954.9067383-.5290464 2.01686557-.03 2.934-.8947066.54428615-1.4408236 1.51574296-1.4408236 2.563 0 1.047257.546117 2.0187138 1.4408236 2.563-.047.087-.067.188-.106.28-11.302 4.36-17.121 15.182-17.313 32.295-1.77193157.4467867-3.0157855 2.037619-3.022 3.865v6c0 2.209139 1.790861 4 4 4h52c2.209139 0 4-1.790861 4-4v-6c-.0062145-1.827381-1.2500684-3.4182133-3.022-3.865zm1.022 9.865c0 1.1045695-.8954305 2-2 2h-1v-3c0-.5522847-.4477153-1-1-1s-1 .4477153-1 1v3h-2v-3c0-.5522847-.4477153-1-1-1s-1 .4477153-1 1v3h-2v-3c0-.5522847-.4477153-1-1-1s-1 .4477153-1 1v3h-2v-3c0-.5522847-.4477153-1-1-1s-1 .4477153-1 1v3h-2v-3c0-.5522847-.4477153-1-1-1s-1 .4477153-1 1v3h-2v-3c0-.5522847-.4477153-1-1-1s-1 .4477153-1 1v3h-2v-3c0-.5522847-.4477153-1-1-1s-1 .4477153-1 1v3h-2v-3c0-.5522847-.4477153-1-1-1s-1 .4477153-1 1v3h-2v-3c0-.5522847-.4477153-1-1-1s-1 .4477153-1 1v3h-2v-3c0-.5522847-.4477153-1-1-1s-1 .4477153-1 1v3h-2v-3c0-.5522847-.4477153-1-1-1s-1 .4477153-1 1v3h-2v-3c0-.5522847-.4477153-1-1-1-.55228475 0-1 .4477153-1 1v3h-2v-3c0-.5522847-.44771525-1-1-1s-1 .4477153-1 1v3h-1c-1.1045695 0-2-.8954305-2-2v-6c0-1.1045695.8954305-2 2-2h6c.5522847 0 1-.4477153 1-1s-.4477153-1-1-1h-4.976c.25-19.454 7.691-29.943 22.762-32.009.3540502-.0484095.6553799-.2820252.7904812-.6128464.1351012-.3308213.0834489-.7085883-.1355-.991-.218949-.2824118-.571931-.4265631-.9259812-.3781536-1.3484124.1915432-2.6841385.4636974-4 .815 0-.028 0-.055-.008-.082-.1169355-.4378945-.5137612-.7423875-.967-.742h-.54c-.5522847 0-1-.4477153-1-1s.4477153-1 1-1h.54c.4532835.000768.8503925-.30345139.967654-.74130558.1172614-.43785419-.074656-.89982036-.467654-1.12569442l-.467-.269c-.4767068-.27643577-.6399378-.88642766-.365-1.364.1296408-.22809621.3460675-.39402337.6-.46.2578005-.07005603.5329144-.03404636.764.1l.47.27c.3916987.22469417.8853831.15899939 1.2046913-.16030874.3193081-.31930813.3850029-.81299253.1603087-1.20469126l-.272-.473c-.1342022-.22993574-.1702421-.50419905-.1-.761.067045-.25370037.2331318-.46986543.461-.6.4764496-.27731213 1.0874588-.11673209 1.366.359l.27.47c.2254282.39406207.6880224.58682456 1.1265697.46944038.4385473-.11738419.7429948-.51545762.7414303-.96944038v-.54c0-.55228475.4477153-1 1-1s1 .44771525 1 1v.54c-.000768.45328352.3034514.85039252.7413056.96765396.4378542.11726143.8998203-.07465594 1.1256944-.46765396l.268-.466c.2782723-.47485706.8864878-.63793902 1.365-.366.2278682.13013457.393955.34629963.461.6.0710372.25740417.0349702.53259548-.1.763l-.27.471c-.2246942.39169873-.1589994.88538313.1603087 1.20469126.3193082.31930813.8129926.38500291 1.2046913.16030874l.473-.271c.23001-.13398486.5041835-.1700129.761-.1.2539325.06597663.4703592.23190379.6.46.2736392.47717939.1132769 1.08566526-.36 1.366l-.47.27c-.3940621.22542821-.5868246.68802238-.4694404 1.12656969.1173842.43854732.5154576.74299481.9694404.74143031h.54c.5522847 0 1 .4477153 1 1s-.4477153 1-1 1h-.54c-.452867.0000656-.8491603.3044648-.966.742-.007.027 0 .055-.008.082-1.3159705-.3508388-2.6516687-.6229874-4-.815-.5473142-.0748346-1.0516654.3081858-1.1265.8555s.3081858 1.0516654.8555 1.1265c15.07 2.068 22.511 12.557 22.761 32.009h-39.976c-.5522847 0-1 .4477153-1 1s.4477153 1 1 1h41c1.1045695 0 2 .8954305 2 2z" fill="#000"/><path id="Shape" d="m16.568 34.567 5.575 4.64-.207.583c-.124.366-.253.731-.391 1.111-.1521693.435336-.0585954.9188649.245 1.266.3017887.343573.7660382.4966643 1.213.4l6-1.321v1.754c0 .5522847.4477153 1 1 1s1-.4477153 1-1v-1.756l6.005 1.323c.442797.091651.9007531-.061001 1.2-.4.3049411-.3497431.3974594-.8368025.242-1.274-.135-.372-.264-.737-.39-1.111l-.2-.578 5.574-4.637c.359-.3.717-.6 1.082-.892.3462467-.2343392.5309289-.6437607.4774318-1.0584167-.0534972-.4146561-.3360461-.7637974-.7304318-.9025833-.3-.137-.6-.283-.9-.428l-.068-.034 1.126-3.583c.1413302-.4320119.0406085-.9066247-.264-1.244-.3004841-.3367951-.7587823-.4861239-1.2-.391l-1.158.25c-.686.148-1.3773333.2996667-2.074.455-.179-.424-.358-.85-.535-1.3-.121878-.39486-.454778-.6880991-.8618605-.7591803-.4070824-.0710813-.8196593.0919891-1.0681395.4221803-.604.674-1.2113333 1.3453333-1.822 2.014l1.121-5.863c.0923648-.4906097-.1105676-.9899249-.519-1.277-.4055457-.2837396-.9397822-.3033087-1.365-.05-.6.355-1.143.681-1.513.9-.518-1.049-1.316-2.665-2.033-4.123-.2109196-.4320857-.6496829-.7061542-1.1305-.7061542s-.9195804.2740685-1.1305.7061542c-.715 1.455-1.511 3.068-2.033 4.122l-1.51-.9c-.4280439-.2539711-.9652832-.2331046-1.3723387.053302-.4070556.2864065-.6081422.7850301-.5136613 1.273698l1.121 5.862c-.611-.67-1.219-1.341-1.829-2.021-.2532009-.3204027-.6596886-.4790974-1.063-.415-.4089693.0814773-.7414016.3786749-.868.776-.17.432-.348.857-.527 1.281-.69-.154-1.385-.307-2.078-.457l-1.147-.247c-.4411841-.0934052-.8987638.0547334-1.201499.3889778s-.4049913.8042102-.268501 1.2340222l1.129 3.594-.067.033c-.3.145-.6.291-.9.429-.3931091.1397153-.6742811.4885769-.727302.9023932-.0530208.4138162.1311156.8222962.476302 1.0566068.362.299.72.599 1.079.898zm2.139-3.628-.843-2.681c.7686667.166 1.5416667.3363333 2.319.511.7537703.2166766 1.5451328-.1952715 1.8-.937l.04-.094.126-.3c.5053333.5593333 1.0123333 1.1173333 1.521 1.674l.528.581c.011.013.078.087.09.1.4612509.49902 1.2018373.622451 1.8.3.588799-.3196114.8966057-.9889689.756-1.644-.05-.287-.105-.575-.159-.862l-.973-5.1.511.3c.3669673.2527181.8285073.3260087 1.2557099.1994014.4272025-.1266073.7742793-.4395425.9442901-.8514014.364-.732.962-1.944 1.58-3.2.618 1.256 1.217 2.468 1.582 3.2.1806937.4053993.5266097.7138107.95.847.4201507.1147548.8693285.0441385 1.234-.194l.522-.308-.973 5.1c-.054.287-.109.575-.155.841-.1483593.664995.1633141 1.3475721.763 1.671.5967252.3156809 1.3312918.1891448 1.788-.308.011-.01.132-.146.143-.157l.475-.522c.508-.558 1.015-1.116 1.521-1.674l.126.3.04.094c.2595233.7426836 1.0541306 1.1531575 1.81.935.77-.172 1.544-.344 2.31-.509l-.843 2.68c-.3067705.7803009.0706974 1.6622479.847 1.979l.093.045-.082.069-5.737 4.776c-.6048356.4122912-.8237606 1.2009281-.518 1.866l.234.66-5.133-1.126v-.727l5.641-4.7c.4241547-.3540145.4810145-.9848453.127-1.409s-.9848453-.4810145-1.409-.127l-4.359 3.628v-8.865c0-.5522847-.4477153-1-1-1s-1 .4477153-1 1v8.865l-4.359-3.633c-.27438-.2290073-.6500914-.2942387-.9856075-.1711223s-.5798639.4158763-.641.768.0702275.7101151.3446075.9391223l5.641 4.701v.731l-5.133 1.131.233-.656c.3074973-.6648858.0897701-1.4546226-.515-1.868l-5.736-4.772-.082-.069.1-.048c.7747927-.3182324 1.1493228-1.2006074.84-1.979z" fill="#000"/></g></g></svg>