<svg height="512" viewBox="0 0 60 60" width="512" xmlns="http://www.w3.org/2000/svg"><g id="Page-1" fill="none" fill-rule="evenodd"><g id="003---Mounty-Hat" fill-rule="nonzero"><path id="Shape" d="m46 15v5c0 3.31-7.16 6-16 6s-16-2.69-16-6v-5c-.0014104-.7549579.0689055-1.5083425.21-2.25 1.6192635 1.3844572 3.6607929 2.1777976 5.79 2.25 4.418278 0 8-3.581722 8-8 0-2.41-1.02-4.66-3.62-5.11 3.6527041-1.18666975 7.5872959-1.18666975 11.24 0-2.6.45-3.62 2.7-3.62 5.11 0 4.418278 3.581722 8 8 8 2.130789-.0732655 4.1730124-.8704028 5.79-2.26.1406571.7450894.2109664 1.5017509.21 2.26z" fill="#91562d"/><path id="Shape" d="m32.62 1.89c-2.6.45-3.62 2.7-3.62 5.11 0 4.418278 3.581722 8 8 8 .4992681-.0005178.9972944-.049751 1.487-.147-3.7647111-.7250864-6.4857424-4.0190988-6.487-7.853 0-2.41 1.02-4.66 3.62-5.11-1.813629-.59552935-3.7111079-.89601977-5.62-.89-.506 0-1.006.022-1.5.061 1.4015677.1104068 2.7848047.38873287 4.12.829z" fill="#6d4122"/><path id="Shape" d="m45.79 12.74c-.8596755.6799454-1.8072385 1.2406793-2.817 1.667.009.2.027.393.027.593v5c0 3.12-6.365 5.687-14.5 5.972.494.017.994.028 1.5.028 8.84 0 16-2.69 16-6v-5c.0009664-.7582491-.0693429-1.5149106-.21-2.26z" fill="#6d4122"/><path id="Shape" d="m46 20v6c0 3.31-7.16 6-16 6s-16-2.69-16-6v-6c0 3.31 7.16 6 16 6s16-2.69 16-6z" fill="#ff9801"/><path id="Shape" d="m43 23.488v2.512c0 3.12-6.365 5.687-14.5 5.972.494.017.994.028 1.5.028 8.84 0 16-2.69 16-6v-6c0 1.3-1.119 2.5-3 3.488z" fill="#f57c00"/><path id="Shape" d="m59 29c0 3.7-4.81 6.97-12.19 8.96-.3504801-.9586753-1.1665217-1.6717957-2.1635163-1.8906481-.9969946-.2188525-2.0366934.0869102-2.7564837.8106481h-.01c-3.148338-3.149498-7.4268392-4.9069969-11.88-4.88 8.84 0 16-2.69 16-6v-6.17c7.83 1.96 13 5.33 13 9.17z" fill="#91562d"/><path id="Shape" d="m41 36c-.017 0-.032.005-.049.005.3245849.2754106.634668.5674695.929.875h.01c.1862459-.1802249.3945706-.3361324.62-.464-.45716-.2710062-.9785512-.4146478-1.51-.416z" fill="#6d4122"/><path id="Shape" d="m46 19.83v.87c6.121 2.006 10 4.976 10 8.3 0 3.25-3.713 6.168-9.618 8.178.1808158.2378967.3250748.5014727.428.782 7.38-1.99 12.19-5.26 12.19-8.96 0-3.84-5.17-7.21-13-9.17z" fill="#6d4122"/><path id="Shape" d="m30 32c-4.4531608-.0269969-8.731662 1.730502-11.88 4.88h-.01c-.7197903-.7237379-1.7594891-1.0295006-2.7564837-.8106481-.9969946.2188524-1.8130362.9319728-2.1635163 1.8906481-7.38-1.99-12.19-5.26-12.19-8.96 0-3.84 5.17-7.21 13-9.17v6.17c0 3.31 7.16 6 16 6z" fill="#91562d"/><path id="Shape" d="m28 7c0 4.418278-3.581722 8-8 8-2.1292071-.0722024-4.1707365-.8655428-5.79-2.25.92-5 4.87-9.12 10.16-10.86h.01c2.6.45 3.62 2.7 3.62 5.11z" fill="#a0522d"/><path id="Shape" d="m24.38 1.89h-.01c-.507.167-1 .362-1.477.571 1.4473684 1.04076004 2.2462439 2.76173582 2.107 4.539-.0014424 3.8345229-2.7234938 7.1287547-6.489 7.853.4903583.0973975.9890626.1466316 1.489.147 4.418278 0 8-3.581722 8-8 0-2.41-1.02-4.66-3.62-5.11z" fill="#783e22"/><path id="Shape" d="m45.79 12.74c-1.6169876 1.3895972-3.659211 2.1867345-5.79 2.26-4.418278 0-8-3.581722-8-8 0-2.41 1.02-4.66 3.62-5.11h.01c5.28 1.74 9.23 5.85 10.16 10.85z" fill="#a0522d"/><path id="Shape" d="m35.63 1.89h-.01c-.5366423.09137859-1.0506675.28524146-1.514.571 4.4206482 1.77354466 7.6738012 5.62420788 8.684 10.279-1.2501317 1.0281797-2.7222337 1.7515638-4.3 2.113.4975566.0966104 1.0031521.1458307 1.51.147 2.130789-.0732655 4.1730124-.8704028 5.79-2.26-.93-5-4.88-9.11-10.16-10.85z" fill="#783e22"/><path id="Shape" d="m19 39c.0016565.0601734-.0016884.1203804-.01.18-.0382094.779319-.3876759 1.5106767-.97 2.03v.01c-1.0486465.9505799-2.6179048 1.0421546-3.77.22v-.01c-.9201489-.6558803-1.3926498-1.7739392-1.2217249-2.8909162.170925-1.1169771.9561552-2.0425722 2.0303355-2.3932711 1.0741803-.3506988 2.2543021-.0667527 3.0513894.7341873h.01c.5634227.5616324.8800702 1.3244649.88 2.12z" fill="#ff9801"/><path id="Shape" d="m41 39c-.0016565.0601734.0016884.1203804.01.18-3.6434997.5556394-7.3243888.8297837-11.01.82-3.6856112.0097837-7.3665003-.2643606-11.01-.82.0083116-.0596196.0116565-.1198266.01-.18.0000702-.7955351-.3165773-1.5583676-.88-2.12 6.5835046-6.5069329 17.1764954-6.5069329 23.76 0-.5634227.5616324-.8800702 1.3244649-.88 2.12z" fill="#a0522d"/><path id="Shape" d="m47 39c.0022277 1.1890478-.6993873 2.2667267-1.7876466 2.7458209s-2.3568923.2687954-3.2323534-.5358209c-.5823241-.5193233-.9317906-1.250681-.97-2.03-.0083116-.0596196-.0116565-.1198266-.01-.18-.0000702-.7955351.3165773-1.5583676.88-2.12h.01c.8588539-.8497809 2.1436607-1.1014254 3.2596356-.6384377 1.1159749.4629876 1.8453082 1.550244 1.8503644 2.7584377z" fill="#ff9801"/><path id="Shape" d="m45.75 41.44c-1.39 9.99-7.9 17.56-15.75 17.56s-14.36-7.57-15.75-17.56c1.1520952.8221546 2.7213535.7305799 3.77-.22 1.19 7.29 6.11 12.78 11.98 12.78s10.8-5.49 11.98-12.79c.5494462.5089175 1.2710762.7911391 2.02.79.6273798-.0001082 1.2391098-.1958618 1.75-.56z" fill="#dfc49c"/><g fill="#000"><path id="Shape" d="m47 19.063v-4.063c0-8.271-7.626-15-17-15s-17 6.729-17 15v4.063c-8.268 2.209-13 5.807-13 9.937 0 3.939 4.377 7.435 12.034 9.667-.01.112-.034.219-.034.333.0029069 1.127695.4845442 2.20111 1.325 2.953 1.598 10.478 8.558 18.047 16.675 18.047s15.077-7.569 16.675-18.047c.8404558-.75189 1.3220931-1.825305 1.325-2.953 0-.114-.024-.221-.034-.333 7.657-2.232 12.034-5.728 12.034-9.667 0-4.13-4.732-7.728-13-9.937zm-4.394 18.507c.7927532-.7756982 2.0632027-.7653374 2.8431993.0231869.7799967.7885243.776543 2.0590113-.007729 2.8432834-.7842721.784272-2.0547591.7877257-2.8432834.007729-.7885243-.7799966-.7988851-2.0504461-.0231869-2.8431993zm-28.606 1.43c.0009537-.8061306.4857823-1.5328852 1.2297287-1.8433544.7439465-.3104693 1.6015614-.1439533 2.1752713.4223544l.014.014c.6375248.6418637.7647999 1.6317577.3103808 2.4140173-.4544191.7822597-1.3773655 1.1620742-2.2507547.9262393-.8733893-.2358349-1.479716-1.0285878-1.4786261-1.9332566zm5.767 1.294c3.3903103.4741781 6.8096928.7100897 10.233.706 3.4233072.0040897 6.8426897-.2318219 10.233-.706.1506427.4376699.3763472.8457653.667 1.206-1.24 6.689-5.766 11.5-10.9 11.5s-9.653-4.81-10.906-11.5c.293088-.3595809.5208689-.767759.673-1.206zm20.3-2c-3.3347297.4732826-6.6988539.709209-10.067.706-3.3693387.005386-6.7348055-.2285359-10.071-.7-.084451-.4613001-.2503744-.9038755-.49-1.307 6.0352381-5.3212356 15.0867619-5.3212356 21.122 0-.2396256.4031245-.405549.8456999-.49 1.307zm-25.067-14.878c3.054 2.343 9.15 3.584 15 3.584s11.946-1.241 15-3.584v2.584c0 2.36-6.415 5-15 5s-15-2.64-15-5zm0-8.416c0-7.168 6.729-13 15-13s15 5.832 15 13v5c0 2.36-6.415 5-15 5s-15-2.64-15-5zm-13 14c0-2.989 4.182-5.955 11-7.868v4.868c0 3.248 4.474 5.42 10.031 6.4-1.8327437.7690419-3.5230102 1.8410089-5 3.171-.6127493-.3708606-1.3147657-.5682271-2.031-.571-1.3334987.0007971-2.5789081.6660654-3.321 1.774-6.605-1.915-10.679-4.86-10.679-7.774zm28 29c-6.789 0-12.686-6.236-14.473-15.048.1565392.0256388.3145014.0416688.473.048.4463263-.0047471.8886087-.0852235 1.308-.238 1.666 7.169 6.836 12.238 12.692 12.238s11.033-5.068 12.692-12.238c.4194116.1527016.861681.2331757 1.308.238.1588306-.0063254.3171258-.0223553.474-.048-1.786 8.812-7.685 15.048-14.474 15.048zm17.321-21.226c-.7420919-1.1079346-1.9875013-1.7732029-3.321-1.774-.7156417.0034867-1.416913.2011836-2.029.572-1.4761389-1.3313688-3.1665918-2.4037921-5-3.172 5.556-.98 10.029-3.153 10.029-6.4v-4.868c6.818 1.913 11 4.879 11 7.868 0 2.914-4.074 5.859-10.679 7.774z"/><path id="Shape" d="m17.753 15.707c.7332145.1942395 1.4884933.2927249 2.247.293 4.9680501-.006061 8.993939-4.0319499 9-9 .0040584-.70151609-.0806133-1.40072955-.252-2.081-.08296-.35284604-.3503595-.63317643-.6988976-.73269481-.348538-.09951839-.7236416-.00264247-.9804018.25320295s-.3549743.63060081-.2567006.97949186c.1292106.51694065.1923807 1.04817373.188 1.581-.0044086 3.8641657-3.1358343 6.9955914-7 7-.5854036.0009376-1.1683931-.075046-1.734-.226-.5315978-.135832-1.0733624.1820418-1.2141041.7123609s.1721091 1.0749998.7011041 1.2206391z"/><path id="Shape" d="m40 16c.7585067-.0002751 1.5137855-.0987605 2.247-.293.3482793-.0889911.621997-.3580661.7169326-.7047721.0949356-.3467061-.00352-.7176902-.2578791-.9716968-.2543591-.2540065-.6254795-.3519475-.9720535-.2565311-.5656069.150954-1.1485964.2269376-1.734.226-3.8641657-.0044086-6.9955914-3.1358343-7-7-.0042117-.53215761.0589571-1.06270804.188-1.579.0982737-.34889105.0000596-.72364644-.2567006-.97949186s-.6318638-.35272134-.9804018-.25320295c-.3485381.09951838-.6159376.37984877-.6988976.73269481-.1712194.67962188-.2558898 1.37815276-.252 2.079.006061 4.9680501 4.0319499 8.993939 9 9z"/></g></g></g></svg>