<svg height="512" viewBox="0 0 60 43" width="512" xmlns="http://www.w3.org/2000/svg"><g id="Page-1" fill="none" fill-rule="evenodd"><g id="006---Canadian-Shirt" fill-rule="nonzero"><path id="Shape" d="m50.04 12.75-7.11 5.53-.47-.69c-.0621406-.0908657-.1760703-.1308808-.2813828-.0988292s-.1776332.1287517-.1786172.2388292v22.27c-.0032948 1.1032019-.8967981 1.9967052-2 2h-20c-1.1032019-.0032948-1.9967052-.8967981-2-2v-22.27c-.000984-.1100775-.0733047-.2067776-.1786172-.2388292s-.2192422.0079635-.2813828.0988292l-.47.69-7.11-5.53 7.43-10.88c.3187978-.45482538.8105754-.75857034 1.36-.84l9.73 11.35c.3799765.4443328.9353516.7001539 1.52.7001539s1.1400235-.2558211 1.52-.7001539l9.73-11.35c.5494246.08142966 1.0412022.38517462 1.36.84z" fill="#f5f5f5"/><path id="Shape" d="m42.61 1.87c-.3187978-.45482538-.8105754-.75857034-1.36-.84l-1.232 1.437 7.022 10.283-7.11 5.53-.47-.69c-.0621406-.0908657-.1760703-.1308808-.2813828-.0988292s-.1776332.1287517-.1786172.2388292v22.27c-.0032948 1.1032019-.8967981 1.9967052-2 2h3c1.1032019-.0032948 1.9967052-.8967981 2-2v-22.27c.000984-.1100775.0733047-.2067776.1786172-.2388292s.2192422.0079635.2813828.0988292l.47.69 7.11-5.53z" fill="#cfd8dc"/><path id="Shape" d="m17.07 18.28-2.03 2.98-7.11-5.54 2.03-2.97z" fill="#f44335"/><path id="Shape" d="m15.04 21.26-2.76 4.05c-.1184248.1738464-.2063506.3666069-.26.57l-1.45 4.99-8.63-2.59 1.82-6.28c.05711451-.203903.14841-.396638.27-.57l3.9-5.71z" fill="#f5f5f5"/><path id="Shape" d="m10.57 30.87-.85 2.94c-.11139093.3819117-.36993342.7039315-.71875108.8952186-.34881767.1912871-.75933717.2361723-1.14124892.1247814l-5.77-1.66c-.80029184-.2326107-1.26113077-1.0692795-1.03-1.87l.88-3.02z" fill="#f44335"/><path id="Shape" d="m41.25 1.03-9.73 11.35c-.3799765.4443328-.9353516.7001539-1.52.7001539s-1.1400235-.2558211-1.52-.7001539l-9.73-11.35c.0987645-.01987835.1992549-.02992738.3-.03h4.95l6 7 6-7h4.95c.1007451.00007262.2012355.01012165.3.03z" fill="#f44335"/><path id="Shape" d="m36 1-6 7-6-7z" fill="#607d8b"/><path id="Shape" d="m57.91 33.17-5.77 1.66c-.79529.2319596-1.6280404-.22471-1.86-1.02l-.85-2.94 8.63-2.59.88 3.02c.2311308.8007205-.2297082 1.6373893-1.03 1.87z" fill="#f44335"/><path id="Shape" d="m58.06 28.28-8.63 2.59-1.45-4.99c-.0536494-.2033931-.1415752-.3961536-.26-.57l-2.76-4.05 7.11-5.54 3.9 5.71c.12159.173362.2128855.366097.27.57z" fill="#f5f5f5"/><path id="Shape" d="m56.24 22c-.0571145-.203903-.14841-.396638-.27-.57l-3.9-5.71-1.958 1.526 2.858 4.184c.12159.173362.2128855.366097.27.57l1.82 6.28-5.871 1.762.241.828 8.63-2.59z" fill="#cfd8dc"/><path id="Shape" d="m52.07 15.72-7.11 5.54-2.03-2.98 7.11-5.53z" fill="#f44335"/><path id="Shape" d="m30 31-4.636.986c-.0599189.0123334-.121825-.0086772-.1618588-.0549338-.0400338-.0462567-.0519444-.110537-.0311412-.1680662.088-.237.173-.47.254-.7.057-.162.118-.321.175-.483.088-.244.071-.315-.135-.48-1.078-.872-2.1546667-1.745-3.23-2.619-.389-.311-.771-.629-1.163-.936-.108-.084-.091-.118.024-.169.277-.122.548-.253.821-.382.1000367-.0261445.1824652-.096891.2234778-.1918059.0410126-.0949148.0360414-.2034267-.0134778-.2941941l-.784-2.43c-.0193144-.0581305-.005459-.122166.0361583-.1671127s.1043994-.0636797.1638417-.0488873c.25.05.493.1.74.155.513.108 1.03.22 1.544.331.0861943.034934.1832836.030893.2662768-.0110828.0829933-.0419758.1437835-.1177861.1667232-.2079172.145-.335.29-.669.429-1.011.047-.111.071-.138.169-.033.615.669 1.236 1.331 1.858 2l.071.077c.0956731.1178266.2611167.1519279.3955851.0815384.1344683-.0703896.2007214-.2257763.1584149-.3715384-.047-.267-.1-.534-.152-.8-.162-.825-.483-2.461-.77-3.928-.0121546-.0646848.0145824-.1305095.0684003-.1683973.053818-.0378878.1248033-.0408596.1815997-.0076027.589.342 1.105.64 1.237.715.0811349.0684883.1912417.0916521.2930945.0616598.1018528-.0299922.181835-.1091308.2129055-.2106598.318-.623.914-1.8 1.442-2.845.0280309-.0572763.0862324-.0935902.15-.0935902s.1219691.0363139.15.0935902c.528 1.045 1.124 2.222 1.442 2.845.0310705.101529.1110527.1806676.2129055.2106598.1018528.0299923.2119596.0068285.2930945-.0616598.132-.075.648-.373 1.237-.715.0567964-.0332569.1277817-.0302851.1815997.0076027.0538179.0378878.0805549.1037125.0684003.1683973-.287 1.467-.608 3.1-.77 3.928-.051.267-.1.534-.152.8-.0423065.1457621.0239466.3011488.1584149.3715384.1344684.0703895.299912.0362882.3955851-.0815384l.071-.077c.622-.666 1.243-1.328 1.858-2 .1-.105.122-.078.169.033.139.342.284.676.429 1.011.0229397.0901311.0837299.1659414.1667232.2079172.0829932.0419758.1800825.0460168.2662768.0110828.514-.111 1.031-.223 1.544-.331.247-.05.49-.105.74-.155.0594423-.0147924.1222244.0039406.1638417.0488873s.0554727.1089822.0361583.1671127l-.784 2.43c-.0495192.0907674-.0544904.1992793-.0134778.2941941.0410126.0949149.1234411.1656614.2234778.1918059.273.129.544.26.821.382.115.051.132.085.023.169-.391.307-.773.625-1.162.936-1.074.872-2.1506667 1.745-3.23 2.619-.206.165-.223.236-.135.48.057.162.118.321.175.483.081.233.166.466.254.7.0208032.0575292.0088926.1218095-.0311412.1680662-.0400338.0462566-.1019399.0672672-.1618588.0549338z" fill="#f44335"/><path id="Shape" d="m38.9 26.373c-.277-.122-.548-.253-.821-.382-.1000367-.0261445-.1824652-.096891-.2234778-.1918059-.0410126-.0949148-.0360414-.2034267.0134778-.2941941l.784-2.43c.0193144-.0581305.005459-.122166-.0361583-.1671127s-.1043994-.0636797-.1638417-.0488873c-.25.05-.493.1-.74.155-.513.108-1.03.22-1.544.331-.0861943.034934-.1832836.030893-.2662768-.0110828-.0829933-.0419758-.1437835-.1177861-.1667232-.2079172-.145-.335-.29-.669-.429-1.011-.047-.111-.071-.138-.169-.033-.323.352-.652.7-.978 1.051l.553-.119c.247-.05.49-.105.74-.155.0594423-.0147924.1222244.0039406.1638417.0488873s.0554727.1089822.0361583.1671127l-.784 2.43c-.0495192.0907674-.0544904.1992793-.0134778.2941941.0410126.0949149.1234411.1656614.2234778.1918059.273.129.544.26.821.382.115.051.132.085.023.169-.391.307-.773.625-1.162.936-1.074.872-2.1506667 1.745-3.23 2.619-.206.165-.223.236-.135.48.057.162.118.321.175.483.035.1.072.2.108.3l2.953.628c.0599189.0123334.121825-.0086772.1618588-.0549338.0400338-.0462567.0519444-.110537.0311412-.1680662-.088-.237-.173-.47-.254-.7-.057-.162-.118-.321-.175-.483-.088-.244-.071-.315.135-.48 1.078-.872 2.1546667-1.745 3.23-2.619.389-.311.771-.629 1.162-.936.113-.089.096-.123-.023-.174z" fill="#c81e1e"/><g fill="#000"><path id="Shape" d="m1.813 34.131 5.768 1.659c1.3254834.3865993 2.7134007-.3745166 3.1-1.7l2.31-7.973c.0260439-.0859528.0648067-.1675232.115-.242l3.894-5.714v19.839c0 1.6568542 1.3431458 3 3 3h20c1.6568542 0 3-1.3431458 3-3v-19.839l3.881 5.693c.0632578.0913853.1105929.1928177.14.3l2.3 7.927c.1856515.6365196.6165557 1.1732192 1.1979185 1.492031.5813627.3188119 1.2655619.3936205 1.9020815.207969l5.771-1.66c.638548-.1833196 1.1778716-.6132573 1.4988942-1.1948879.3210225-.5816306.3973412-1.2671172.2121058-1.9051121l-2.7-9.3c-.0868272-.306042-.2236739-.5956162-.405-.857l-13.366-19.556c-.5591396-.81865853-1.4866177-1.30822325-2.478-1.308h-21.908c-.9908417-.00011854-1.917835.48901354-2.477 1.307l-9.427 13.793-3.928 5.753c-.18591188.2644468-.32618824.5581821-.415.869l-2.7 9.3c-.18523545.6379949-.10891673 1.3234815.21210584 1.9051121.32102256.5816306.86034613 1.0115683 1.49889416 1.1948879zm6.711-.3c-.11823816.0650458-.25756055.0801661-.387.042l-5.771-1.66c-.26667655-.0787952-.42044185-.3573555-.345-.625l.6-2.057 6.718 2.017-.577 1.99c-.03795346.1240381-.12354132.2279662-.238.289zm1.662-19.634 5.531 4.3-.9 1.323-5.53-4.31zm40.528 1.313-5.529 4.307-.9-1.323 5.531-4.3zm7.221 16.457c-.064242.1170152-.1720409.203973-.3.242l-5.775 1.661c-.1285905.0377033-.2669338.0222117-.384-.043-.1156792-.0641064-.2004587-.1723356-.235-.3l-.577-1.988 6.718-2.017.6 2.057c.0368165.1304172.0198906.2701453-.047.388zm-2.656-9.689 1.546 5.328-6.718 2.017-1.155-3.978c-.081903-.3213494-.2193006-.6259254-.406-.9l-2.232-3.274 5.53-4.309 3.309 4.843c.05776.0828636.1004164.1752858.126.273zm-31.739-20.278 5.7 6.651c.1899799.22146648.4672128.34890938.759.34890938s.5690201-.1274429.759-.34890938l5.702-6.651h2.64l-8.339 9.728c-.1950222.2145877-.4715318.3369315-.7615.3369315s-.5664778-.1223438-.7615-.3369315l-8.338-9.728zm2.634 0h7.652l-3.826 4.463zm-7.953.435c.0615136-.08698836.1368414-.16332951.223-.226l9.279 10.823c.5699442.664749 1.4018701 1.0473111 2.2775 1.0473111s1.7075558-.3825621 2.2775-1.0473111l9.278-10.822c.0865015.06299671.1621596.13966806.224.227l6.9 10.1-5.554 4.323c-.3517248-.3635578-.889367-.4763299-1.3575342-.2847469-.4681672.1915831-.7725129.6489127-.7684658 1.1547469v22.27c0 .5522847-.4477153 1-1 1h-20c-.5522847 0-1-.4477153-1-1v-22.27c.0037568-.5516809-.3560038-1.0400438-.884-1.2-.1199175-.0367201-.244587-.055589-.37-.056-.3315734.0023548-.6482961.1378358-.879.376l-5.55-4.317zm-13.5 19.842c.02785749-.1015942.07356996-.197421.135-.283l3.3-4.83 5.53 4.309-2.245 3.293c-.1730782.2549129-.3018876.5372116-.381.835l-1.167 4.022-6.718-2.017z"/><path id="Shape" d="m21.15 27.887 3.371 2.732-.041.112c-.079.227-.162.454-.25.692-.1435937.3990902-.0599597.8446399.2185863 1.1644904s.7083792.4639081 1.1234137.3765096l3.428-.729v3.765c0 .5522847.4477153 1 1 1s1-.4477153 1-1v-3.765l3.437.731c.4156103.0841012.8441954-.0632502 1.1202216-.3851424.2760261-.3218921.3562851-.7679371.2097784-1.1658576-.085-.23-.168-.457-.249-.69l-.039-.106 3.371-2.732c.23-.187.461-.374.7-.559.3244261-.2270311.496109-.6153121.4457287-1.0080681-.0503802-.392756-.3145047-.7251344-.6857287-.8629319-.108-.047-.214-.1-.32-.145l.621-1.924c.1295514-.3957844.0387663-.8306038-.2383283-1.1414854s-.6986526-.4508768-1.1066717-.3675146l-1.8.383c-.075-.176-.15-.355-.226-.542-.1306178-.358482-.4416161-.620756-.817-.689-.3778571-.0588491-.7591631.082768-1.007.374-.1.115-.212.23-.318.345l.473-2.417c.0900199-.4514562-.0937684-.913649-.4692247-1.1800113s-.8724167-.2871171-1.2687753-.0529887l-.654.379c-.324-.637-.748-1.475-1.136-2.244-.1979954-.3944868-.6016136-.6435117-1.043-.6435117s-.8450046.2490249-1.043.6435117c-.388.769-.812 1.608-1.136 2.244l-.653-.378c-.3959931-.2313982-.8908124-.2093881-1.2646965.056255-.3738842.2656432-.5575017.7256597-.4693035 1.175745l.474 2.421-.324-.351c-.2464651-.2962542-.6338566-.4360828-1.0127171-.3655393-.3788604.0705436-.689963.3404313-.8132829.7055393-.071.176-.145.35-.218.523l-1.794-.381c-.4075498-.0869469-.8305364.0500227-1.1097636.3593587-.2792273.3093359-.372318.7440916-.2442364 1.1406413l.622 1.93c-.107.05-.214.1-.325.147-.3699201.1393596-.6322193.472146-.6813018.8643868-.0490826.3922409.1231273.779399.4473018 1.0056132.234.181.465.368.695.555zm4.936-3.014c.4090344.4155087 1.0408886.516427 1.559.249.5188382-.272301.7949123-.8550334.677-1.429-.034-.192-.071-.383-.108-.575l-.476-2.428c.2397038.0743062.4959281.0767398.737.007.3634634-.1115775.6627849-.3716675.824-.716.171-.335.423-.831.7-1.38.278.55.53 1.046.7 1.383.1615605.3430543.4604245.6019729.823.713.2407023.0695743.4964639.0674893.736-.006l-.475 2.427c-.037.192-.074.383-.1.546-.1312626.5759689.1370518 1.1688782.6563763 1.4504313.5193245.281553 1.1625925.1828604 1.5736237-.2414313.012-.011.094-.1.106-.112l.418-.449.515-.551c.3038912.4816544.8859055.7094343 1.436.562l.876-.188-.342 1.065c-.1887208.4941101-.0630341 1.0531992.319 1.419l-3.33 2.7c-.4482998.3050889-.6554833.8597155-.517 1.384l-3.186-.677c-.1438853-.0322174-.2931147-.0322174-.437 0l-3.165.673c.1392104-.5220297-.0659856-1.0750971-.512-1.38l-3.335-2.7c.3820341-.3658008.5077208-.9248899.319-1.419l-.343-1.062.883.189c.5481295.1438557 1.1262919-.0839298 1.429-.563l.515.551.418.449z"/></g></g></g></svg>