<svg id="Layer_1" enable-background="new 0 0 512 512" height="512" viewBox="0 0 512 512" width="512" xmlns="http://www.w3.org/2000/svg"><g><g><path d="m331.545 100.227c-37.092 0-67.269 30.093-67.269 67.082s30.177 67.082 67.269 67.082 67.269-30.093 67.269-67.082-30.177-67.082-67.269-67.082zm0 102.542c-19.638 0-35.559-15.876-35.559-35.46s15.92-35.46 35.559-35.46 35.559 15.876 35.559 35.46-15.92 35.46-35.559 35.46z" fill="#f0f4ff"/><path d="m314.234 157.591-3.141-18.325-57.59-32.767-55.038 32.767-3.141 18.325c-1.332 7.77-6.094 14.477-12.884 18.511-45.119 26.809-73.786 77.845-68.657 134.172l14.196 155.876c1.978 21.719 20.238 38.349 42.106 38.349h169.387c21.869 0 40.128-16.63 42.106-38.349l14.196-155.876c5.13-56.327-23.537-107.363-68.657-134.172-6.789-4.034-11.551-10.741-12.883-18.511z" fill="#f07507"/><path d="m327.118 176.103c-6.79-4.035-11.552-10.742-12.884-18.511l-3.141-18.325-40.09-2.767 3.231 21.091c1.332 7.77 6.094 14.477 12.884 18.511 45.119 26.809 73.786 77.845 68.657 134.172l-14.196 155.876c-1.978 21.719-20.238 38.349-42.106 38.349h40c21.869 0 40.128-16.63 42.106-38.349l14.196-155.876c5.13-56.326-23.537-107.362-68.657-134.171z" fill="#d96a06"/><g><path d="m195.587 459.425h118.383c16.058 0 29.467-12.212 30.919-28.16l8.841-94.137c5.239-57.525-40.956-109.271-98.952-109.271-57.997 0-104.191 51.745-98.952 109.271l8.841 94.137c1.454 15.948 14.862 28.16 30.92 28.16z" fill="#f0f4ff"/></g><g><path d="m254.774 287.053-26.124 25.283 8.864 42.866-21.658-24.212-24.292 2.351.618 26.165 25.826 20.983.59 23.555 36.176-18.066h.004l36.177 18.066.59-23.555 25.825-20.983.619-26.165-24.292-2.351-21.658 24.212 8.863-42.866-26.124-25.283" fill="#fc3869"/></g><g><path d="m299.471 71.465h-89.384l-11.622 67.802h112.628z" fill="#f0f4ff"/></g><path d="m299.471 71.465h-40l11.622 67.802h40z" fill="#e1e7f7"/><path d="m310.189 71.465h-110.82v-43.978c0-11.038 8.948-19.987 19.987-19.987h70.846c11.038 0 19.987 8.948 19.987 19.987z" fill="#fc3869"/><path d="m290.202 7.5h-40c11.038 0 19.987 8.948 19.987 19.987v43.979h40v-43.979c0-11.039-8.949-19.987-19.987-19.987z" fill="#e83361"/></g><g fill="#060606"><path d="m382.892 221.479c14.953-14.079 23.422-33.503 23.422-54.17 0-41.125-33.541-74.582-74.769-74.582-6.945 0-13.751.961-20.336 2.823l-2.843-16.585c4.334.076 9.322-2.32 9.322-7.5v-43.978c0-15.156-12.33-27.487-27.486-27.487h-70.846c-15.156 0-27.487 12.331-27.487 27.487v43.979c0 5.18 4.988 7.577 9.322 7.5l-13.261 77.359c-.944 5.513-4.342 10.371-9.322 13.33-8.659 5.146-16.853 11.222-24.353 18.062-7.166 6.534 2.943 17.618 10.107 11.083 6.75-6.155 14.12-11.622 21.907-16.249 13.18-7.83 16.732-21.665 18.518-35.784h99.981c1.785 14.118 5.34 27.954 18.518 35.784 21.386 12.707 38.802 31.054 50.364 53.058 11.928 22.699 16.996 48.283 14.655 73.986l-14.195 155.876c-1.638 17.974-16.528 31.529-34.638 31.529h-169.386c-18.11 0-33.001-13.555-34.638-31.529l-14.196-155.876c-2.639-28.977 4.008-57.33 19.222-81.993 5.091-8.253-7.676-16.13-12.766-7.875-16.932 27.448-24.33 58.994-21.394 91.229l14.196 155.876c2.345 25.75 23.657 45.169 49.575 45.169h169.387c25.917 0 47.229-19.418 49.575-45.169l14.196-155.876c2.604-28.591-3.037-57.058-16.314-82.324-1.276-2.43-2.634-4.806-4.037-7.153zm-175.533-89.712 9.051-52.801h76.737l9.051 52.801zm95.329-67.802c-31.94 0-63.88 0-95.819 0v-36.478c0-6.885 5.602-12.487 12.487-12.487h70.846c6.885 0 12.486 5.602 12.486 12.487zm50.148 121.551c-6.775-5.906-14.088-11.227-21.887-15.861-9.659-5.739-10.061-17.642-11.745-27.465 26.418-12.927 53.081 20.837 33.632 43.326zm10.815 10.425c7.029-7.811 10.953-17.901 10.953-28.632 0-23.688-19.316-42.96-43.059-42.96-5.16 0-10.2.911-14.943 2.663l-2.843-16.584c5.732-1.788 11.691-2.701 17.786-2.701 32.956 0 59.769 26.728 59.769 59.582 0 15.646-6.095 30.399-16.917 41.479-3.344-4.482-6.927-8.774-10.746-12.847z"/><path d="m342.459 376.941c-.908 9.656 14.029 11.054 14.934 1.402l3.807-40.535c2.717-29.829-7.538-59.874-28.135-82.432-41.799-45.779-114.763-45.788-156.57-.001-20.598 22.558-30.853 52.603-28.134 82.454l8.84 94.116c1.815 19.942 18.318 34.98 38.388 34.98h118.381c20.069 0 36.572-15.038 38.386-34.959l1.344-14.312c.908-9.655-14.028-11.057-14.934-1.402l-1.346 14.333c-1.108 12.166-11.189 21.34-23.45 21.34h-118.383c-12.261 0-22.342-9.174-23.452-21.361l-8.84-94.116c-2.335-25.642 6.513-51.505 24.274-70.958 35.94-39.361 98.469-39.37 134.417.001 17.762 19.453 26.609 45.315 24.276 70.936z"/><path d="m254.778 429.991c4.143 0 7.5-3.358 7.5-7.5v-24.385l25.326 12.648c6.004 1.798 9.62-.376 10.849-6.522l.503-20.101 23.145-18.805c1.705-1.385 2.717-3.448 2.769-5.644l.618-26.165c.093-3.929-2.863-7.264-6.775-7.643l-24.292-2.351c-3.532-.334-7.467 3.08-9.395 5.91l3.222-15.581c.52-2.515-.283-5.122-2.129-6.908l-26.124-25.283c-2.907-2.814-7.528-2.814-10.436 0l-26.124 25.283c-1.846 1.786-2.648 4.393-2.129 6.908l3.222 15.581c-1.928-2.832-5.861-6.243-9.395-5.911l-24.292 2.351c-3.912.379-6.868 3.713-6.775 7.643l.619 26.165c.052 2.196 1.063 4.258 2.769 5.644l23.144 18.805.504 20.101c.141 5.608 6.352 8.768 10.849 6.522l25.329-12.649v24.386c-.002 4.143 3.355 7.501 7.498 7.501zm-28.978-37.927-.295-11.763c-.056-2.192-1.066-4.25-2.769-5.633l-23.139-18.801-.372-15.733 13.571-1.313 19.127 21.381c4.995 5.583 14.451.817 12.935-6.519l-8.029-38.827 17.946-17.368 17.946 17.368-8.028 38.827c-1.517 7.337 7.939 12.101 12.935 6.519l19.126-21.381 13.572 1.313-.372 15.733-23.14 18.801c-1.702 1.383-2.713 3.441-2.769 5.633l-.294 11.763-25.624-12.796c-2.08-1.039-4.625-1.039-6.705 0z"/></g></g></svg>