<svg height="512" viewBox="0 0 60 60" width="512" xmlns="http://www.w3.org/2000/svg"><g id="Page-1" fill="none" fill-rule="evenodd"><g id="025---Mitts" fill-rule="nonzero" transform="translate(-1 -1)"><path id="Shape" d="m37.64 35.79c-.4100863 1.4692855-1.0190545 2.875632-1.81 4.18l-4.57 2.64-3.35 1.94-8.02 4.63-.06.03c-1.2466875.5340157-2.6797451.3944811-3.8-.37-5.74-3.12-9.4-8.9-11.9-14.7-1.9-4.41-3.32-9.49-.68-14.05 2.11-3.62 6.55-6.38 10.79-5.36 1.5222231.3645777 2.9958447.9083743 4.39 1.62 3.2505514 1.689035 6.1118297 4.0393707 8.4 6.9l.01-.01.13-.91c.2906577-2.2526203 2.0846813-4.0140093 4.3422574-4.2632685 2.2575762-.2492592 4.3926528 1.0783175 5.1677426 3.2132685 1.9161852 4.5973282 2.2538039 9.7002948.96 14.51z" fill="#f44335"/><path id="Shape" d="m36.68 21.28c-.6211291-1.6690775-2.0844005-2.8808491-3.84-3.18-.7441373-.1047664-1.5023681-.0384169-2.217.194 1.4045036.5038028 2.5203375 1.593721 3.057 2.986 1.9161852 4.5973282 2.2538039 9.7002948.96 14.51-.4100863 1.4692855-1.0190545 2.875632-1.81 4.18l-4.57 2.64-3.35 1.94-8.02 4.63-.06.03h-.005c.9495955.4490187 2.0504045.4490187 3 0l.06-.03 8.02-4.63 3.35-1.94 4.57-2.64c.7909455-1.304368 1.3999137-2.7107145 1.81-4.18 1.2953859-4.809156.9595264-9.9121098-.955-14.51z" fill="#c81e1e"/><path id="Shape" d="m42.57 49.94-16.83 9.72c-.9877635.6501975-2.3145029.3875209-2.98-.59l-4-6.93c-.5135932-1.0666034-.0775545-2.3480233.98-2.88l.09-.05.06-.03 8.02-4.63 3.35-1.94 4.57-2.64.74-.42c.9833989-.6555487 2.3118359-.3916504 2.97.59l3.64 6.31.36.62c.5229876 1.0604987.0891168 2.3442195-.97 2.87z" fill="#f5f5f5"/><path id="Shape" d="m43.54 47.07-.36-.62-3.64-6.31c-.6581641-.9816504-1.9866011-1.2455487-2.97-.59l-.348.2c.1243395.1150335.2314416.2473955.318.393l3.64 6.31.36.62c.5229876 1.0604987.0891168 2.3442195-.97 2.87l-16.488 9.519c.7474351.6395293 1.8232804.7204808 2.658.2l16.83-9.72c1.0602699-.5258076 1.4943362-1.8110017.97-2.872z" fill="#cfd8dc"/><path id="Rectangle-path" d="m23.153 47.603h16v4h-16z" fill="#f44335" transform="matrix(.866 -.5 .5 .866 -20.627 22.22)"/><path id="Shape" d="m58.78 37.43-15.6 9.02-3.64-6.31c-.6581641-.9816504-1.9866011-1.2455487-2.97-.59l-.74.42c.7909455-1.304368 1.3999137-2.7107145 1.81-4.18l14.41-8.33.73-.42c.9865159-.656527 2.3180682-.3928976 2.98.59l4 6.92c.5206011 1.06617.0828436 2.352641-.98 2.88z" fill="#f5f5f5"/><path id="Shape" d="m59.76 34.55-4-6.92c-.6619318-.9828976-1.9934841-1.246527-2.98-.59l-.34.2c.1252303.1154773.2330224.2485332.32.395l4 6.92c.5206011 1.06617.0828436 2.352641-.98 2.88l-13.35 7.714.75 1.3 15.6-9.02c1.0622703-.5273436 1.4999303-1.8130817.98-2.879z" fill="#cfd8dc"/><path id="Shape" d="m52.05 27.46-14.41 8.33c1.2938039-4.8097052.9561852-9.9126718-.96-14.51-.7750898-2.134951-2.9101664-3.4625277-5.1677426-3.2132685-2.2575761.2492592-4.0515997 2.0106482-4.3422574 4.2632685l-.13.91-.01.01c-2.2881703-2.8606293-5.1494486-5.210965-8.4-6.9-.8157833-2.9466821-.4423366-6.095843 1.04-8.77 2.1-3.62 6.55-6.38 10.79-5.37 5.0708333 1.38541822 9.5553261 4.37858909 12.78 8.53l.02-.02.13-.9c.292577-2.25001436 2.0842014-4.00914073 4.339194-4.26048586 2.2549926-.25134512 4.3899841 1.07011428 5.170806 3.20048586 2.42 5.74 2.47 13.27-.85 18.7z" fill="#ff5722"/><path id="Shape" d="m27.46 2.21c5.0708333 1.38541822 9.5553261 4.37858909 12.78 8.53l.02-.02.13-.9c.0870596-.55537053.2676164-1.09196909.534-1.587-2.8900359-2.90286011-6.5022709-4.98203556-10.464-6.023-1.0967209-.25422224-2.2345997-.27534454-3.34-.062.114.021.227.035.34.062z" fill="#d84315"/><path id="Shape" d="m29.84 18.1c-2.0963454-.3019135-4.1541855.7556935-5.129 2.636.8218495.7915853 1.5961994 1.6310487 2.319 2.514l.01-.01.13-.91c.2837716-1.895285 1.624464-3.4623382 3.453-4.036-.2549829-.0869017-.5169402-.1518055-.783-.194z" fill="#d84315"/><path id="Shape" d="m52.9 8.76c-.6295641-1.66522146-2.0949047-2.8717486-3.85-3.17-.7439232-.10316392-1.5015884-.03475171-2.215.2 1.4032523.49992232 2.5211577 1.58317809 3.065 2.97 2.42 5.74 2.47 13.27-.85 18.7l-10.958 6.34c-.1154782.672486-.2663545 1.3384115-.452 1.995l14.41-8.33c3.32-5.435 3.27-12.965.85-18.705z" fill="#d84315"/><path id="Shape" d="m20.26 36.737-3.522 3.172c-.0462062.040382-.1106714.0525439-.1684147.031773-.0577433-.020771-.09969-.0712106-.1095853-.131773-.042-.249-.086-.493-.132-.735-.032-.17-.058-.338-.09-.507-.045-.254-.095-.307-.357-.348-1.3686667-.216-2.7376667-.4336667-4.107-.653-.492-.074-.981-.159-1.474-.229-.136-.019-.138-.057-.064-.158.179-.244.347-.493.52-.741.0731499-.0729614.10879-.1754455.0966957-.2780516-.0120942-.1026061-.0705862-.1939948-.1586957-.2479484l-1.894-1.712c-.0447575-.0403563-.06447018-.1015944-.05165953-.1604821.01281065-.0588876.0561818-.1064022.11365953-.1245179.242-.081.48-.156.719-.235.5-.163 1-.325 1.5-.486.0921436-.0126636.1742645-.064671.2251019-.1425579.0508375-.0778868.065393-.1739948.0398981-.2634421-.041-.362-.083-.725-.133-1.09-.015-.12-.008-.155.129-.113.867.272 1.737.534 2.608.8.034.012.066.02.1.032.1417271.0527194.3010124-.000965.3819144-.1287177s.0613354-.2946988-.0469144-.4002823c-.174-.208-.355-.412-.532-.617l-2.631-3.017c-.0433101-.049986-.053262-.1207322-.0254228-.1807268.0278392-.0599945.0882886-.0980725.1544228-.0972732h1.428c.262 0 .377-.124.364-.382-.036-.7-.108-2.015-.174-3.185-.0036318-.0633848.0287785-.1234026.0837715-.1551293.054993-.0317268.1231739-.0297423.1762285.0051293.98.642 2.085 1.363 2.671 1.743.0778744.0720183.1866083.1003151.2897102.0753938s.1869069-.0997577.2232898-.1993938c.077-.131.374-.647.714-1.237.0333415-.0545248.0947326-.0854093.1583862-.0796804.0636537.0057288.1185437.0470785.1416138.1066804.485 1.414 1.024 2.991 1.3 3.787.09.256.177.514.269.769.0358629.1476628.1709043.2495316.3227383.2434582.151834-.0060733.2783076-.1184027.3022617-.2684582.007-.035.016-.068.023-.1.205-.887.413-1.772.611-2.659.032-.139.066-.128.163-.055.291.226.584.444.877.661.0646451.0668224.1550873.1023335.2479277.0973462s.1789578-.049983.2360723-.1233462c.389-.354.781-.709 1.172-1.059.188-.168.372-.336.563-.5.0444504-.0408187.1073792-.0546597.1648546-.0362593s.1006656.0662148.1131454.1252593l.536 2.5c.0025424.1034444.0524667.1999864.1354109.261853.0829441.0618665.1897121.0821986.2895891.055147.3-.026.6-.047.9-.08.125-.013.156.007.105.135-.186.462-.358.928-.539 1.391-.4953333 1.2933333-.9913333 2.588-1.488 3.884-.1.246-.075.316.123.483.13.111.263.219.393.33.187.162.377.321.571.482.0470038.0392965.069059.1009544.057643.1611478s-.0545151.1094945-.112643.1288522z" fill="#f5f5f5"/><g fill="#000"><path id="Shape" d="m40.411 39.639c-.420961-.7216066-1.1368626-1.2226281-1.959-1.371-.1977293-.0384086-.3985804-.0584937-.6-.06 2.1959763-5.5830368 2.105447-11.8062025-.252-17.323-.8750476-2.3490215-3.1369903-3.8903015-5.6432999-3.8453251s-4.7114964 1.6664202-5.5017001 4.0453251c-3.2076915-3.5438315-7.3676196-6.0895007-11.983-7.333-4.9-1.17-9.684 2.048-11.884 5.834-2.961 5.1-1.221 10.665.625 14.947 3.215 7.452 7.251 12.417 12.341 15.18.6475191.3658929 1.3504312.6236161 2.081.763-.2043396.726455-.1111485 1.5043667.259 2.162l4 6.928c.4208593.7217002 1.1368094 1.2227557 1.959 1.371.2094266.0416577.4224709.0624262.636.062.615358-.0029865 1.2191496-.1674688 1.751-.477l16.825-9.714c1.5380483-.8039416 2.1391535-2.6983607 1.346-4.242zm-35.361-5.897c-1.661-3.851-3.245-8.825-.732-13.15 1.784-3.07 5.788-5.827 9.688-4.894 6.077 1.454 11.988 6.419 15.427 12.957.1643995.3196619.4877172.526494.8468526.5417469.3591354.015253.698826-.1634204.8897374-.4679918.1909115-.3045714.203667-.6881742.03341-1.0047551-.8863588-1.6802243-1.9289604-3.2732554-3.114-4.758l.073-.49c.3195007-2.1821579 2.342319-3.6959197 4.526-3.387 1.4055293.2570314 2.5717051 1.2354943 3.069 2.575 2.434 5.763 2.16 12.788-.659 17.579l-4.338 2.5-1.536.887-9.752 5.63c-.806.463-1.72.368-2.964-.307-4.68-2.537-8.428-7.187-11.458-14.211zm37.015 15.334-16.825 9.715c-.2999713.1806295-.655143.2466915-1 .186-.25401-.0429078-.4776966-.1920322-.615-.41l-4-6.928c-.227292-.5862307.0419781-1.2480037.614-1.509l.234-.13 6.481-3.742 10.109-5.836c.2274419-.1349845.4865307-.2074327.751-.21.0832181-.0004197.1662784.0072834.248.023.2540755.0420633.4779593.1909552.615.409l4 6.928c.2249638.5842835-.0429942 1.2427946-.612 1.504z"/><path id="Shape" d="m37.947 43.372c-.1324451-.2298428-.3507871-.3976431-.6069745-.4664724-.2561873-.0688292-.5292254-.0330468-.7590255.0994724l-13.857 8c-.4782682.2761504-.6421293.8877197-.366 1.366l2 3.464c.1324483.2301142.3509724.3981095.607401.4669532.2564287.0688436.5297088.0328836.759599-.0999532l13.856-8c.2299444-.1326158.3977275-.3512138.4663798-.607628.0686522-.2564142.0325399-.5296031-.1003798-.759372zm-12.357 10.597-1-1.732 12.125-7 1 1.731z"/><path id="Shape" d="m56.628 27.133c-.4185457-.724116-1.1348038-1.2271063-1.958-1.375-.1976838-.0387178-.3985638-.0588058-.6-.06 2.1977085-5.5839523 2.1078945-11.8087775-.25-17.327-.8741336-2.35002198-3.1364078-3.89232447-5.643336-3.84733698-2.5069282.0449875-4.7124096 1.66746506-5.501664 4.04733698-3.2089238-3.54304516-7.3688177-6.08882801-11.984-7.334-4.899-1.165-9.691 2.055-11.886 5.842-.8264423 1.42110843-1.3411641 3.0017476-1.51 4.637-.036977.3554793.1185008.7036826.4078664.9134453.2893655.2097626.6686574.2492166.995.1035.3263425-.1457166.5501566-.454466.5871336-.8099453.1351541-1.3554206.5615476-2.66564259 1.25-3.841 1.781-3.07 5.781-5.829 9.691-4.9 6.074 1.461 11.986 6.428 15.419 12.963.1729008.329185.5141702.5352563.886.535.1634487.0011331.3246152-.0383853.469-.115.4886457-.2569176.6766488-.8612131.42-1.35-.8849887-1.679808-1.9262554-3.2725107-3.11-4.757l.073-.5c.3215515-2.17641495 2.3381004-3.68625957 4.517-3.382 1.407037.25603873 2.57533 1.23398554 3.075 2.574 2.434 5.766 2.159 12.793-.663 17.584l-9.572 5.53c-.4742136.2780058-.6351286.886647-.3602745 1.3626943.274854.4760473.8824145.640996 1.3602745.3693057l10.536-6.088c.3022129-.1805531.6589777-.2472249 1.006-.188.253075.0426316.4756237.1919686.611.41l4 6.917c.2398294.5879634-.0313115 1.2600563-.612 1.517l-12.131 7.01c-.4742136.2780058-.6351286.886647-.3602745 1.3626943.274854.4760473.8824145.640996 1.3602745.3693057l12.127-7.006c1.5418784-.8041501 2.1446476-2.702717 1.349-4.249z"/><path id="Shape" d="m21.894 41.567c.1773616.3119508.5082732.5049532.8671183.5057421s.6906021-.1907567.8693336-.5019247c.1787314-.3111679.1770325-.694247-.0044519-1.0038174l-1.882-3.26 3.34-1.086c.402937-.133789.7015415-.4756912.7798848-.8929681s-.0759143-.8442035-.4028848-1.1150319c-.189-.156-.374-.312-.559-.472l-.088-.074 1.561-4.07c.1-.271.208-.542.315-.811.1678173-.3585386.1227086-.7806019-.1170915-1.0955757-.2398-.3149738-.6346393-.4707756-1.0249085-.4044243-.116.013-.233.024-.35.034l-.423-1.971c-.0837824-.4091677-.3794956-.7425533-.7757408-.8745663s-.8328192-.0425961-1.1452592.2345663l-1.368 1.232c-.153-.114-.307-.231-.464-.353-.2925649-.244683-.6927969-.3162074-1.052-.188-.3592284.1349067-.6207132.4492205-.688.827-.034.153-.069.3-.1.458l-.8-2.333c-.1485575-.4340667-.5376629-.7408186-.9944156-.7839491-.4567526-.0431306-.8964006.1853632-1.1235844.5839491-.137.237-.266.462-.377.655-.6-.39-1.386-.9-2.106-1.375-.3685431-.2421961-.8421359-.2559555-1.2241186-.0355646-.3819828.220391-.6071038.6372843-.5818814 1.0775646.048.86.1 1.8.138 2.512-.223 0-.478-.006-.759 0-.4579877-.0004426-.8739736.2668231-1.0639283.6835606-.1899548.4167374-.1188225.9060384.1819283 1.2514394l1.621 1.858-.454-.141c-.3615956-.1342764-.7675562-.0621387-1.0607551.1884924s-.4276235.6404232-.3512449 1.0185076c.025.185.048.37.071.562l-1.747.567c-.39539484.1301699-.69173997.4607785-.77804621.8680039-.08630625.4072254.05044861.8296239.35904621 1.1089961l1.5 1.36c-.067.1-.135.192-.2.286-.25231546.305339-.3145256.7254027-.16153905 1.0907656.15298656.365363.49594119.6157741.89053905.6502344.287.04.574.086.86.132l4.306.683.021.119c.045.235.087.473.129.72.0737437.4181323.3684036.7634064.7697444.9019645.4013408.1385582.8462549.0486132 1.1622556-.2349645l2.605-2.345zm-1.947-5.779c-.1372506.0456015-.2628565.120692-.368.22l-2.4 2.165c-.1406173-.5215731-.5944327-.8980837-1.133-.94l-4.24-.673c.1483912-.5076479-.0222887-1.0547695-.433-1.388l-.828-.749.86-.278c.5431324-.1518152.9264377-.6365006.949-1.2l.776.237.584.178.1.032c.5631298.1599169 1.1642249-.0710646 1.4753576-.5669325.3111328-.4958678.2576147-1.137587-.1313576-1.5750675l-2.007-2.308c.2444723-.055549.4675231-.1809717.642-.361.2591527-.2786498.388458-.6538532.356-1.033-.019-.376-.05-.931-.083-1.545l1.3.846c.3111681.2158535.6988724.2906355 1.068.206.2443397-.0589814.4656822-.1891419.636-.374l.987 2.867c.1755758.5635915.7047187.9415113 1.2947876.924752.590069-.0167594 1.0969085-.4241036 1.2402124-.996752.005-.015.032-.133.035-.148l.111-.479c.066-.285.133-.571.2-.855.5040394.2654473 1.1221856.1718134 1.525-.231l.664-.6.234 1.09c.0835459.52231.472129.9436035.986 1.069l-1.547 4.004c-.2346027.4874596-.1368742 1.0698254.244 1.454l-3.1 1.006z"/></g></g></g></svg>