<svg height="512" viewBox="0 0 60 50" width="512" xmlns="http://www.w3.org/2000/svg"><g id="Page-1" fill="none" fill-rule="evenodd"><g id="005---Moose" fill-rule="nonzero" transform="translate(-1)"><path id="Shape" d="m21.96 20.08c-.1688413.2608936-.3224318.5313464-.46.81-.4748683.9513543-.8373103 1.9547819-1.08 2.99-.0493776.1575085-.0894468.3177854-.12.48-.1128913.5413457-.1930367 1.0890063-.24 1.64h-.02c-8 0-7-6-7-6h8.8z" fill="#6d4122"/><path id="Shape" d="m31 15c-3.6924505.003236-7.1171397 1.9277295-9.04 5.08l-.12-.08h-10.84c-4.97056275 0-9-4.0294373-9-9v-6.83c-.03458225-1.61544807 1.17331402-2.98845246 2.78-3.16.83129343-.06112627 1.65054287.22636026 2.26135391.79354194.61081105.56718168.95811196 1.36292047.95864609 2.19645806v7c0 2.209139 1.790861 4 4 4v-3.34c-.0111213-.707087.2641739-1.3886204.7632792-1.88960912.4991052-.50098869 1.1795969-.77884886 1.8867208-.77039088 1.3218097.07944957 2.3523856 1.1758069 2.35 2.5.0093024 1.9291303 1.5708697 3.4906976 3.5 3.5h.5v-3.34c-.0111213-.707087.2641739-1.3886204.7632792-1.88960912.4991052-.50098869 1.1795969-.77884886 1.8867208-.77039088 1.3218097.07944957 2.3523856 1.1758069 2.35 2.5.0093024 1.9291303 1.5708697 3.4906976 3.5 3.5z" fill="#ff9801"/><path id="Shape" d="m60 4.17v6.83c0 4.9705627-4.0294373 9-9 9h-10.84l-.12.08c-1.9228603-3.1522705-5.3475495-5.076764-9.04-5.08h1.5c1.9291303-.0093024 3.4906976-1.5708697 3.5-3.5-.0023856-1.3241931 1.0281903-2.42055043 2.35-2.5.7071239-.00845798 1.3876156.26940219 1.8867208.77039088.4991053.50098872.7744005 1.18252212.7632792 1.88960912v3.34h.5c1.9291303-.0093024 3.4906976-1.5708697 3.5-3.5-.0023856-1.3241931 1.0281903-2.42055043 2.35-2.5.7071239-.00845798 1.3876156.26940219 1.8867208.77039088.4991053.50098872.7744005 1.18252212.7632792 1.88960912v3.34c2.209139 0 4-1.790861 4-4v-7c.0005341-.83353759.347835-1.62927638.9586461-2.19645806.610811-.56718168 1.4300605-.85466821 2.2613539-.79354194 1.606686.17154754 2.8145822 1.54455193 2.78 3.16z" fill="#ff9801"/><path id="Shape" d="m47 11.66v3.34c1.1527556-.0024362 2.2475601-.5056813 3-1.379v-1.961c.0111213-.707087-.2641739-1.3886204-.7632792-1.88960912-.4991052-.50098869-1.1795969-.77884886-1.8867208-.77039088-.506247.03409082-.9902344.22099085-1.388.536.6502712.5138953 1.0320962 1.295202 1.038 2.124z" fill="#f57c00"/><path id="Shape" d="m38 11.66v3.34h.5c.9281576.0018579 1.8181442-.3692701 2.47-1.03.011-.011.019-.025.03-.036v-2.274c.0111213-.707087-.2641739-1.3886204-.7632792-1.88960912-.4991052-.50098869-1.1795969-.77884886-1.8867208-.77039088-.506247.03409082-.9902344.22099085-1.388.536.6502712.5138953 1.0320962 1.295202 1.038 2.124z" fill="#f57c00"/><path id="Shape" d="m57.22 1.01c-.6083639-.04539981-1.2157787.09963884-1.738.415.9455789.59193743 1.5193152 1.62942493 1.518 2.745v6.83c0 4.9705627-4.0294373 9-9 9h3c4.9705627 0 9-4.0294373 9-9v-6.83c.0345822-1.61544807-1.173314-2.98845246-2.78-3.16z" fill="#f57c00"/><path id="Shape" d="m40.04 20.08.12-.08h-.176c.016.028.039.052.056.08z" fill="#f57c00"/><path id="Shape" d="m41.96 26h-.02c-.0469633-.5509937-.1271087-1.0986543-.24-1.64-.0305532-.1622146-.0706224-.3224915-.12-.48-.2426897-1.0352181-.6051317-2.0386457-1.08-2.99-.1375682-.2786536-.2911587-.5491064-.46-.81l.12-.08h8.8s1 6-7 6z" fill="#6d4122"/><path id="Shape" d="m28 29v10h-1.69c-.7891895-.0026265-1.5474994.3064477-2.11.86-.77-5.68-3.18-2.9-4.09-10.74-.0981739-.8495714-.1282698-1.7056318-.09-2.56.01-.19.02-.38.04-.56.0469633-.5509937.1271087-1.0986543.24-1.64.0305532-.1622146.0706224-.3224915.12-.48 1.58-.48 7.58-1.82 7.58 5.12z" fill="#f5f5f5"/><path id="Shape" d="m41.58 23.88c-1.58-.48-7.58-1.82-7.58 5.12v10h-6v-10c0-6.94-6-5.6-7.58-5.12.2426897-1.0352181.6051317-2.0386457 1.08-2.99.1375682-.2786536.2911587-.5491064.46-.81 1.9203666-3.1549095 5.3465921-5.0804289 9.04-5.0804289s7.1196334 1.9255194 9.04 5.0804289c.1688413.2608936.3224318.5313464.46.81.4748683.9513543.8373103 1.9547819 1.08 2.99z" fill="#825a2c"/><path id="Shape" d="m31 29v10h3v-10c0-3.631 1.644-4.986 3.436-5.393-2.309-.422-6.436-.368-6.436 5.393z" fill="#624421"/><path id="Shape" d="m40.5 20.89c-.1375682-.2786536-.2911587-.5491064-.46-.81-2.1875674-3.6324465-6.3462314-5.5914377-10.54-4.965 3.1277116.4485 5.892282 2.2689367 7.54 4.965.1688413.2608936.3224318.5313464.46.81.4032535.8233641.7231778 1.6849824.955 2.572 1.057579-.0337296 2.1134644.1075057 3.125.418-.2426897-1.0352181-.6051317-2.0386457-1.08-2.99z" fill="#624421"/><path id="Shape" d="m41.89 29.12c-.91 7.84-3.32 5.06-4.09 10.74-.5625006-.5535523-1.3208105-.8626265-2.11-.86h-1.69v-10c0-6.94 6-5.6 7.58-5.12.0493776.1575085.0894468.3177854.12.48.1128913.5413457.1930367 1.0890063.24 1.64.02.18.03.37.04.56.0382698.8543682.0081739 1.7104286-.09 2.56z" fill="#f5f5f5"/><path id="Shape" d="m41.98 26.56c-.01-.19-.02-.38-.04-.56-.0469633-.5509937-.1271087-1.0986543-.24-1.64-.0305532-.1622146-.0706224-.3224915-.12-.48-1.3389154-.4248616-2.7609196-.518541-4.144-.273.3861825.0693246.7681277.1604706 1.144.273.0493776.1575085.0894468.3177854.12.48.1128913.5413457.1930367 1.0890063.24 1.64.02.18.03.37.04.56.0382698.8543682.0081739 1.7104286-.09 2.56-.86 7.409-3.059 5.338-3.948 9.88h.748c.7891895-.0026265 1.5474994.3064477 2.11.86.77-5.68 3.18-2.9 4.09-10.74.0981739-.8495714.1282698-1.7056318.09-2.56z" fill="#cfd8dc"/><path id="Shape" d="m38.67 42.3-.4 4c-.1538763 1.5310707-1.4412183 2.6974545-2.98 2.7h-8.58c-1.5387817-.0025455-2.8261237-1.1689293-2.98-2.7l-.4-4c-.0905319-.844008.1829221-1.6865983.7518264-2.3165931.5689044-.6299947 1.3793348-.9876791 2.2281736-.9834069h9.38c.8488388-.0042722 1.6592692.3534122 2.2281736.9834069.5689043.6299948.8423583 1.4725851.7518264 2.3165931z" fill="#ffe0b2"/><path id="Shape" d="m37.8 39.86c-.5625006-.5535523-1.3208105-.8626265-2.11-.86h-3c.8488388-.0042722 1.6592692.3534122 2.2281736.9834069.5689043.6299948.8423583 1.4725851.7518264 2.3165931l-.4 4c-.1538763 1.5310707-1.4412183 2.6974545-2.98 2.7h3c1.5387817-.0025455 2.8261237-1.1689293 2.98-2.7l.4-4c.0921348-.9028348-.227444-1.7991247-.87-2.44z" fill="#dfc49c"/><g fill="#000"><path id="Shape" d="m57.3.012c-1.1097299-.08346484-2.2040659.29915418-3.020025 1.05590883s-1.2797708 1.81922691-1.279975 2.93209117v7c-.0015506 1.2709888-.8022983 2.4036464-2 2.829v-2.169c-.0028654-1.0242738-.4253598-2.00262491-1.169-2.707-.6791983-.65663496-1.6005487-1.00177919-2.544-.953-.8537188.05368354-1.6586089.41666622-2.264 1.021-.6587742.65629145-1.0272129 1.5491161-1.023 2.479-.0093067 1.1847482-.8411001 2.2036952-2 2.45v-2.29c-.0028654-1.0242738-.4253598-2.00262491-1.169-2.707-.6782725-.65809879-1.6002848-1.00349098-2.544-.953-.8537188.05368354-1.6586089.41666622-2.264 1.021-.6587742.65629145-1.0272129 1.5491161-1.023 2.479-.0087298 1.3770797-1.1229203 2.4912702-2.5 2.5h-3c-1.3770797-.0087298-2.4912702-1.1229203-2.5-2.5.0036775-.9291915-.3647202-1.82119658-1.023-2.477-.6075407-.60621969-1.4153817-.96996151-2.272-1.023-.9403876-.0455923-1.8579187.29884368-2.536.952-.7438914.70461444-1.1664081 1.6833785-1.169 2.708v2.29c-1.1588999-.2463048-1.9906933-1.2652518-2-2.45.0036775-.9291915-.3647202-1.82119658-1.023-2.477-.6075407-.60621969-1.4153817-.96996151-2.272-1.023-.9403876-.0455923-1.8579187.29884368-2.536.952-.7438914.70461444-1.1664081 1.6833785-1.169 2.708v2.169c-1.19770165-.4253536-1.99844937-1.5580112-2-2.829v-7c-.00015171-1.11097871-.4623487-2.17184814-1.27586517-2.92846209-.81351648-.75661395-1.90505959-1.14080613-3.01313483-1.06053791-2.13366037.2029791-3.75095291 2.0150789-3.711 4.158v6.831c.00606237 5.5203344 4.47966557 9.9939376 10 10h1.014c.0557563 1.3047885.5357097 2.5557571 1.367 3.563 1.4679154 1.5433185 3.5081013 2.4117907 5.638 2.4-.016714.7580434.0166921 1.5163628.1 2.27.529 4.559 1.594 5.835 2.535 6.962.8562566.9394593 1.3807313 2.1338425 1.493 3.4-.61291.7980946-.9024909 1.7978807-.811 2.8l.4 4c.1996162 2.0468942 1.9234045 3.6060996 3.98 3.6h8.57c2.0565955.0060996 3.7803838-1.5531058 3.98-3.6l.4-4c.0928745-1.0020946-.1964594-2.0022612-.81-2.8.1122687-1.2661575.6367434-2.4605407 1.493-3.4.941-1.127 2.006-2.4 2.536-6.967.0829263-.7519933.1163317-1.5086244.1-2.265 2.1298987.0117907 4.1700846-.8566815 5.638-2.4.8292746-1.0080959 1.3077282-2.2588149 1.363-3.563h1.014c5.5203344-.0060624 9.9939376-4.4796656 10-10v-6.831c.0399061-2.13869643-1.5710992-3.94868264-3.7-4.157zm-17.7 21.322c.194.393.352.8.507 1.212-1.6921211-.3233786-3.443691.0233498-4.885.967-1.473 1.095-2.222 2.941-2.222 5.487v9h-4v-9c0-2.546-.749-4.392-2.226-5.487-1.4414301-.9433536-3.19288-1.2900582-4.885-.967.155-.408.311-.817.5-1.208 1.6219103-3.2688407 4.9559025-5.336432 8.605-5.336432s6.9830897 2.0675913 8.605 5.336432zm-36.6-10.334v-6.831c-.02923121-1.09050996.77277558-2.02568014 1.855-2.163.55403408-.04027349 1.09985982.15169078 1.50671413.52990406s.63808122.90860006.63828587 1.46409594v7c.00330612 2.7600532 2.23994685 4.9966939 5 5 .5522847 0 1-.4477153 1-1v-3.34c.001797-.4749796.198023-.9285039.543-1.255.2776529-.2719523.6545776-.4183133 1.043-.405.368369.0220331.7159178.1781989.977.439.2813739.2812085.4387059.6631978.437 1.061.0082318 2.4818637 2.0181363 4.4917682 4.5 4.5h.5c.5522847 0 1-.4477153 1-1v-3.34c.001797-.4749796.198023-.9285039.543-1.255.2779111-.2715516.6546575-.4178433 1.043-.405.368369.0220331.7159178.1781989.977.439.2813739.2812085.4387059.6631978.437 1.061-.0055215 1.1914368.4692187 2.3348506 1.317 3.172.078.079.169.137.251.209-2.0638158.8515141-3.8371354 2.2820475-5.106 4.119h-10.462c-4.41622192-.0049599-7.99504012-3.5837781-8-8zm11.022 10h6.329c-.4535413 1.0094821-.7981558 2.0644449-1.028 3.147-.057.262-.1.545-.141.827-1.5901394.0376592-3.1275954-.5710449-4.261-1.687-.5339372-.6481056-.848679-1.4487891-.899-2.287zm7.078 8.01c-.0926414-.7964266-.1210665-1.599015-.085-2.4.0312611-.6443852.1108176-1.2855174.238-1.918 1.067-.254 3.031-.534 4.326.426.94.7 1.417 2 1.417 3.88v9h-.685c-.4792194.0058082-.953468.097948-1.4.272-.2699889-1.2517668-.8661325-2.4098999-1.728-3.357-.794-.954-1.62-1.943-2.083-5.903zm16.175 17.19c-.1000328 1.023334-.9617923 1.802815-1.99 1.8h-8.57c-1.0282077.002815-1.8899672-.776666-1.99-1.8l-.4-4c-.0565236-.5624028.1275691-1.1224622.5067436-1.5416501s.9180203-.658357 1.4832564-.6583499h9.37c.5652361-.0000071 1.1040819.239162 1.4832564.6583499s.5632672.9792473.5067436 1.5416501zm3.625-17.195c-.46 3.965-1.286 4.954-2.084 5.91-.8618675.9471001-1.4580111 2.1052332-1.728 3.357-.446532-.174052-.9207806-.2661918-1.4-.272h-.688v-9c0-1.878.477-3.184 1.417-3.88 1.3-.961 3.26-.681 4.327-.427.1265315.6322221.205751 1.2729981.237 1.917.0369153.799216.0098289 1.6001044-.081 2.395zm6.182-5.718c-1.1337235 1.1154653-2.6709633 1.7240838-4.261 1.687-.042-.28-.083-.561-.139-.819-.2307267-1.0855252-.5770344-2.1432218-1.033-3.155h6.329c-.0498439.8383162-.3646417 1.6391422-.899 2.287zm11.918-12.287c-.0049599 4.4162219-3.5837781 7.9950401-8 8h-10.461c-1.2692024-1.8366389-3.0424193-3.2670894-5.106-4.119.078-.069.166-.124.239-.2.8530998-.8381482 1.331914-1.9850667 1.328-3.181-.0015913-.7927022.6138875-1.449797 1.405-1.5.3921964-.01886546.7741622.1285472 1.052.406.3447262.3262567.54093.7793683.543 1.254v3.34c0 .5522847.4477153 1 1 1h.5c2.4818637-.0082318 4.4917682-2.0181363 4.5-4.5-.0015913-.7927022.6138875-1.449797 1.405-1.5.3917328-.01783103.7729873.1294471 1.051.406.3452907.3259481.5419038.7791701.544 1.254v3.34c0 .5522847.4477153 1 1 1 2.7600532-.0033061 4.9966939-2.2399468 5-5v-7c-.0012405-.53056179.2101841-1.03949349.587-1.413.4091003-.41635888.9823452-.62894333 1.564-.58 1.079443.14009652 1.8780492 1.07389138 1.849 2.162z"/><path id="Shape" d="m24 30h1c.5522847 0 1-.4477153 1-1s-.4477153-1-1-1h-1c-.5522847 0-1 .4477153-1 1s.4477153 1 1 1z"/><path id="Shape" d="m38 28h-1c-.5522847 0-1 .4477153-1 1s.4477153 1 1 1h1c.5522847 0 1-.4477153 1-1s-.4477153-1-1-1z"/><path id="Shape" d="m28 42c-.5522847 0-1 .4477153-1 1v2c0 .5522847.4477153 1 1 1s1-.4477153 1-1v-2c0-.5522847-.4477153-1-1-1z"/><path id="Shape" d="m34 42c-.5522847 0-1 .4477153-1 1v2c0 .5522847.4477153 1 1 1s1-.4477153 1-1v-2c0-.5522847-.4477153-1-1-1z"/></g></g></g></svg>