<svg height="512" viewBox="0 0 60 60" width="512" xmlns="http://www.w3.org/2000/svg"><g id="Page-1" fill="none" fill-rule="evenodd"><g id="026---Poutine"><path id="Shape" d="m18 41h38l-4.39 15.8c-.359532 1.299424-1.5417546 2.1993859-2.89 2.2h-37.44c-1.34824536-.0006141-2.53046801-.900576-2.89-2.2l-4.39-15.8h8" fill="#ff9801" fill-rule="nonzero"/><path id="Shape" d="m53 41-4.39 15.8c-.359532 1.299424-1.5417546 2.1993859-2.89 2.2h3c1.3482454-.0006141 2.530468-.900576 2.89-2.2l4.39-15.8z" fill="#f57c00" fill-rule="nonzero"/><path id="Shape" d="m18 41h39c1.1032019-.0032948 1.9967052-.8967981 2-2v-1c-.0032948-1.1032019-.8967981-1.9967052-2-2h-54c-1.10320187.0032948-1.9967052.8967981-2 2v1c.0032948 1.1032019.89679813 1.9967052 2 2z" fill="#ffdc00" fill-rule="nonzero"/><path id="Shape" d="m57 36h-3c1.1032019.0032948 1.9967052.8967981 2 2v1c-.0032948 1.1032019-.8967981 1.9967052-2 2h3c1.1032019-.0032948 1.9967052-.8967981 2-2v-1c-.0032948-1.1032019-.8967981-1.9967052-2-2z" fill="#fec108" fill-rule="nonzero"/><path id="Shape" d="m56.81 16.9-2.04 10.48c-.1782787.0138741-.3502115.0723313-.5.17l-1.25.81-1.34.87-.52.34-2.02 1.32 2.73-5.66c.3151802-.6604556.0440273-1.4516885-.61-1.78l-1.67-.8 1.33-6.89c.2347445-1.1673404-.0743785-2.3780722-.84-3.29-.7653999-.9406165-1.9173744-1.4816397-3.13-1.47h-33.9c-1.2126256-.0116397-2.3646001.5293835-3.13 1.47-.76474617.908436-1.07394927 2.1158005-.84 3.28l2.05 10.61-.71.62-.58.51-2.01-.66-.01-.01-2.32-.77c-.17469038-.0564563-.36161201-.0633793-.54-.02l-1.77-9.13c-.56553711-2.9374598.21257716-5.9738893 2.12114683-8.27733549 1.90856966-2.30344615 4.74746417-3.63237205 7.73885317-3.62266451h8.81l.73-2.55c.2428598-.85890628 1.0274201-1.45141277 1.92-1.45h10.98c.8925799-.00141277 1.6771402.59109372 1.92 1.45l.73 2.55h8.81c2.991389-.00970754 5.8302835 1.31921836 7.7388532 3.62266451 1.9085696 2.30344619 2.6866839 5.33987569 2.1211468 8.27733549z" fill="#ff9801" fill-rule="nonzero"/><path id="Shape" d="m34.41 2.45.73 2.55h3l-.73-2.55c-.2428598-.85890628-1.0274201-1.45141277-1.92-1.45l-3-.00000252c.8925799-.00141025 1.6771402.59109624 1.92 1.45000252z" fill="#f57c00" fill-rule="nonzero"/><path id="Shape" d="m46.95 5-3-.00005282c2.991389-.00965472 5.8302835 1.31927118 7.7388532 3.62271733 1.9085696 2.30344619 2.6866839 5.33987569 2.1211468 8.27733549l-2.04 10.48c-.1782787.0138741-.3502115.0723313-.5.17l-.755.489-1.375 2.851 2.02-1.32.52-.34 1.34-.87 1.25-.81c.1497885-.0976687.3217213-.1561259.5-.17l2.04-10.48c.5655371-2.9374598-.2125772-5.9738893-2.1211468-8.27733549-1.9085697-2.30344615-4.7474642-3.63237205-7.7388532-3.62266451z" fill="#f57c00" fill-rule="nonzero"/><path id="Shape" d="m50.92 15.76-1.33 6.89-1.13-.54-1.98-.95c-.6572254-.3202179-1.4496036-.0471384-1.77.61l-.95 1.98-.01.01-5.03.98c-.7138463.1428767-1.1784246.835277-1.04 1.55l1 5.18-3.6-5.57c-.1907359-.2949196-.4916787-.5011278-.8355663-.5725362-.3438875-.0714083-.702049-.0020633-.9944337.1925362l-4.53 2.94.26-3.67c.0438109-.7288702-.5023349-1.3593801-1.23-1.42l-5.29-.37c-.7254598-.0392598-1.3504279.5059251-1.41 1.23l-.44 6.28-1.01-1.15-4.29-4.9c-.4837722-.5484581-1.3200941-.6021258-1.87-.12l-2.31 2.02-2.05-10.61c-.23394927-1.1641995.07525383-2.371564.84-3.28.7653999-.9406165 1.9173744-1.4816397 3.13-1.47h33.9c1.2126256-.0116397 2.3646001.5293835 3.13 1.47.7656215.9119278 1.0747445 2.1226596.84 3.29z" fill="#ff5722" fill-rule="nonzero"/><path id="Shape" d="m48.01 30.78v-.01" stroke="#000" stroke-linecap="round" stroke-linejoin="round" stroke-width="2"/><g fill-rule="nonzero"><path id="Shape" d="m10.09 30.56c-.0712447.0153543-.14139745.035398-.21.06-1.14190108.4239461-2.09080252 1.2484597-2.67 2.32l-2.83-.94-.76-.26c-.25362116-.0798325-.46441472-.2584239-.58482663-.4954849-.1204119-.2370609-.14029847-.512621-.05517337-.7645151l.01-.05 1.23-3.68.02-.06c.10509961-.3326748.37945876-.5841706.72-.66.17838799-.0433793.36530962-.0364563.54.02l2.32.77.01.01 2.01.66-.39.34c-.26302655.2304532-.4235133.5561183-.44602792.905095-.02251463.3489766.09479453.6925641.32602792.954905z" fill="#ffeb3a"/><path id="Shape" d="m57.54 32.57-.45.29-2.4 1.57c-.42-.45-.85-.88-1.29-1.27-1.2419989-1.1278956-2.8730393-1.7301259-4.55-1.68l.2-.42.01-.01.08-.16 2.02-1.32.52-.34 1.34-.87 1.25-.81c.1497885-.0976687.3217213-.1561259.5-.17.3527158-.0073267.6846889.1662046.88.46l1.86 2.86.32.49c.1486754.2202425.2017481.4913358.1471004.7513834-.0546477.2600477-.2123501.4868476-.4371004.6286166z" fill="#ffeb3a"/><path id="Shape" d="m20.61 30.51-.11 1.58c-.0791141.0181917-.1592624.0315497-.24.04-2.84.4-4.76-1.16-7.59-1.6-.1911715-.0386751-.3851164-.0620823-.58-.07-.2918099-.0371521-.5858599-.0538595-.88-.05-.378558-.0033728-.7556705.0471333-1.12.15l-.76-.87c-.23123339-.2623409-.34854255-.6059284-.32602792-.954905.02251462-.3489767.18300137-.6746418.44602792-.905095l.39-.34.58-.51.71-.62 2.31-2.02c.5499059-.4821258 1.3862278-.4284581 1.87.12l4.29 4.9z" fill="#fec108"/><path id="Shape" d="m28.98 24.79-.26 3.67-3.71 2.41c-1.1462829.2472586-2.2780115.5577328-3.39.93-.3641563.1291616-.73892.2261986-1.12.29l.11-1.58.44-6.28c.0595721-.7240749.6845402-1.2692598 1.41-1.23l5.29.37c.7276651.0606199 1.2738109.6911298 1.23 1.42z" fill="#ffeb3a"/><path id="Shape" d="m38.79 32c-.5454052-.1911357-1.0632071-.4533989-1.54-.78-.0610248-.0435434-.1244591-.0836071-.19-.12-2.48-1.55-5.98-1.13-9.27-.71-.27.03-.53.07-.79.11-.68.11-1.35.23-1.99.37l3.71-2.41 4.53-2.94c.2923847-.1945995.6505462-.2639445.9944337-.1925362.3438876.0714084.6448304.2776166.8355663.5725362l3.6 5.57.01.01v.01z" fill="#fec108"/><path id="Shape" d="m46.85 31.8c-.47.1-.94.2-1.4.29-.79.15-1.6.29-2.4.36-1.4356362.1865279-2.8950218.0323674-4.26-.45l-.1-.51v-.01l-.01-.01-1-5.18c-.1384246-.714723.3261537-1.4071233 1.04-1.55l5.03-.98.01-.01.17-.03c.7141376-.1355481 1.4046835.3277859 1.55 1.04l1.23 6.35v.01z" fill="#ffeb3a"/><path id="Shape" d="m56 36h-50c.22980938-1.0803572.63879079-2.1146408 1.21-3.06.57919748-1.0715403 1.52809892-1.8960539 2.67-2.32.06860255-.024602.1387553-.0446457.21-.06.3643295-.1028667.741442-.1533728 1.12-.15.2941401-.0038595.5881901.0128479.88.05.1948836.0079177.3888285.0313249.58.07 2.83.44 4.75 2 7.59 1.6.0807376-.0084503.1608859-.0218083.24-.04.38108-.0638014.7558437-.1608384 1.12-.29 1.1119885-.3722672 2.2437171-.6827414 3.39-.93.64-.14 1.31-.26 1.99-.37.26-.04.52-.08.79-.11 3.29-.42 6.79-.84 9.27.71.0655409.0363929.1289752.0764566.19.12.4767929.3266011.9945948.5888643 1.54.78 1.3649782.4823674 2.8243638.6365279 4.26.45.8-.07 1.61-.21 2.4-.36.46-.09.93-.19 1.4-.29.35-.08.71-.16 1.07-.22.3068502-.057993.6178352-.0914322.93-.1 1.6769607-.0501259 3.3080011.5521044 4.55 1.68.44.39.87.82 1.29 1.27.16.18.33.37.49.56.29.32.56.66.82 1.01z" fill="#a0522d"/><path id="Shape" d="m51.87 25.23-2.73 5.66-.08.16-.01.01-.2.42c-.3121648.0085678-.6231498.042007-.93.1-.36.06-.72.14-1.07.22l-.14-.68v-.01l-1.23-6.35c-.1453165-.7122141-.8358624-1.1755481-1.55-1.04l-.17.03.95-1.98c.3203964-.6571384 1.1127746-.9302179 1.77-.61l1.98.95 1.13.54 1.67.8c.6540273.3283115.9251802 1.1195444.61 1.78z" fill="#fec108"/><path id="Shape" d="m19 56h-6.959c-.4492863.0002611-.8435913-.299149-.964-.732l-1.106-3.982c-.09574718-.3445827-.00038856-.7140707.2501552-.9692815.2505437-.2552108.6182091-.3573718.9645-.268s.6185976.3566988.7143448.7012815l.9 3.25h6.2c.5522847 0 1 .4477153 1 1s-.4477153 1-1 1z" fill="#f5f5f5"/><path id="Shape" d="m57 35h-.524c-.095-.12-.19-.239-.287-.354l1.889-1.233c.45007-.285305.7662183-.7399016.8770497-1.2611293.1108315-.5212277.0069988-1.0651272-.2880497-1.5088707l-2.185-3.358c-.1511905-.2201118-.3441843-.4083487-.568-.554l1.877-9.64c.6225636-3.2305391-.2324672-6.5701987-2.3308642-9.10410837-2.0983969-2.53390969-5.2201696-3.99642094-8.5101358-3.98689163h-8.056l-.521-1.819c-.3659023-1.28939149-1.5426967-2.17964069-2.883-2.181h-10.98c-1.3378829.00148648-2.5130828.88869915-2.881 2.175l-.523 1.825h-8.056c-3.28987953-.00983449-6.41168379 1.4524434-8.51012118 3.98620831-2.09843738 2.53376489-2.95348366 5.87334789-2.33087882 9.10379169l1.635 8.435c-.26775682.2468185-.46544569.5600846-.573.908l-1.229 3.68c-.01196692.0377931-.02198017.0761772-.03.115-.14593354.5002794-.09327911 1.0375694.147 1.5.23561194.4591562.64555379.8046169 1.138.959l2.474.826c-.21708085.482523-.40084454.9793533-.55 1.487h-2.221c-1.65685425 0-3 1.3431458-3 3v1c0 1.6568542 1.34314575 3 3 3h.24l4.186 15.067c.48283836 1.7304541 2.05745156 2.928778 3.854 2.933h37.44c1.7965484-.004222 3.3711616-1.2025459 3.854-2.933l4.186-15.067h.24c1.6568542 0 3-1.3431458 3-3v-1c0-1.6568542-1.3431458-3-3-3zm-.327-3.752.325.481-2.169 1.416c-.254-.253-.51-.5-.775-.738-.8466495-.7409924-1.8398728-1.2953576-2.915-1.627l3.673-2.395zm-46.611-15.69c-.17677892-.871635.0561787-1.7761887.632-2.454.5752894-.708789 1.4431978-1.115483 2.356-1.104h33.9c.9159172-.0108802 1.7863221.398527 2.362 1.111.5734534.6809478.8040454 1.5867394.626 2.459l-1.084 5.619-1.921-.92c-.5451278-.2768408-1.1787415-.3226138-1.758-.127-.5973297.2015031-1.0892135.6336118-1.366 1.2l-.738 1.536-4.531.883c-1.2563295.2459765-2.078317 1.4601951-1.84 2.718l.023.118-.8-1.246c-.3400146-.521404-.8756023-.883989-1.486-1.006-.5964716-.1238717-1.2177005-.0027969-1.724.336l-2.847 1.848.12-1.686c.0756583-1.2751576-.8861381-2.3749897-2.16-2.47l-5.31-.373c-1.2710258-.0679281-2.3643556.8900667-2.464 2.159l-.272 3.885-3.722-4.244c-.8515386-.9529219-2.3102701-1.045985-3.276-.209l-1 .875zm40.908 9.242-2.47 5.115c-.3050531-.1999103-.7010801-.1939699-1 .015l-1.039-5.365c-.1390036-.6919639-.5880137-1.2817966-1.218-1.6l.363-.757c.0416829-.0812232.1134524-.142945.2-.172.0797177-.028002.1676701-.0199731.241.022l4.76 2.28c.083339.0391489.1475049.1100737.1781399.1969041.0306349.0868304.0251816.1823179-.0151399.2650959zm-40.02 3.047 3.15-2.755c.1343759-.1188005.3394792-.1067356.459.027l5.025 5.736-.023.333c-1.2310637-.0215919-2.4460911-.2831438-3.577-.77-1.0142835-.3904129-2.0633159-.6837267-3.133-.876-.210131-.0394637-.4225602-.0655164-.636-.078-.5800331-.0709458-1.1667291-.0679216-1.746.009l-.4-.455c-.0506143-.0561022-.07561103-.1307301-.069-.206.0055344-.0868824.0433412-.1685594.106-.229l.088-.077zm11.1-3.548c.0022968-.0865174.0406569-.1681354.1058026-.2251141.0651456-.0569787.1511446-.0841295.2371974-.0748859l5.277.369c.1821798.0143316.3209062.1693528.315.352l-.225 3.175-3.15 2.043c-1.2.268-2.222.566-3.014.823zm11.76 2.051c.0663388-.0444882.14768-.0606844.226-.045.084422.0164466.1586694.0661851.206.138l2.062 3.19c-2.2215449-.6761316-4.5692772-.8297952-6.86-.449zm5.844 4.87c0-.013-.005-.027-.009-.04l-.979-5.067c-.039193-.1760799.071156-.3507619.247-.391l5.03-.981c.0338032-.0063264.0671965-.0146747.1-.025l.066-.012c.1755098-.0364819.348521.0720914.392.246l1.175 6.073c-.137.029-.276.061-.412.086-.7603868.1540262-1.5280167.2698382-2.3.347-1.1091093.1261502-2.2319838.0461386-3.312-.236zm-33.597-21.929c1.71959556-2.09008988 4.286446-3.29808428 6.993-3.291h8.81c.4465788.00024818.8391909-.29563926.962-.725l.731-2.556c.1224675-.42660757.5131633-.72013977.957-.719h10.98c.4458901-.00082999.8376596.29565529.958.725l.73 2.55c.1228091.42936074.5154212.72524818.962.725h8.81c2.6925119-.0092229 5.2480119 1.18634505 6.9664468 3.2591902 1.7184349 2.0728451 2.4196495 4.8056571 1.9115532 7.4498098l-1.928 9.92c-.057.029-.115.046-.171.081l-2.129 1.39 1.174-2.431c.5486701-1.1598255.0697493-2.5454971-1.078-3.119l-.974-.467 1.178-6.133c.279652-1.4716218-.1133174-2.9912002-1.0713341-4.1427557-.9580167-1.1515554-2.380726-1.81445945-3.8786659-1.8072443h-33.9c-1.4958656-.00730762-2.9168073.653927-3.87454374 1.8030172-.95773642 1.1490902-1.35214689 2.6659115-1.07545626 4.1359828l1.94 10.047-.429.375-1.371-.449c-.03258534-.0154243-.06596552-.0291102-.1-.041l-2.326-.771h-.016l-1.626-8.391c-.51525814-2.6302126.17659469-5.3528462 1.885-7.418zm-2.124 21.5c.005-.021.015-.057.023-.091l1.229-3.7 2.223.738c.03575531.0165635.07249062.0309237.11.043l.65.213c-.08763912.2162676-.14225002.4444872-.162.677-.03912572.5484901.12378099 1.0923424.458 1.529-.6450749.4097781-1.20915238.9348719-1.664 1.549zm4.067 2.763c.02570751-.0376863.04876312-.0771148.069-.118.47126103-.8577671 1.2307079-1.5212204 2.144-1.873.5919652-.1756852 1.2164457-.2126408 1.825-.108.1617583.0093921.3227522.0290988.482.059.9560706.1752893 1.8935331.4401224 2.8.791 1.5946604.6994497 3.3414567.9803138 5.075.816.5253072-.0727082 1.042371-.1959462 1.544-.368 1.706806-.5702407 3.4591644-.9937775 5.238-1.266.244-.043.487-.076.74-.108 3-.382 6.4-.815 8.642.589l.133.081c1.9090112 1.2299906 4.1987626 1.7272993 6.446 1.4.8391069-.0824296 1.6735066-.2072558 2.5-.374.378-.072.762-.156 1.152-.241.431-.094.868-.189 1.319-.27.2440181-.0455661.4909804-.0736376.739-.084h.007c1.4328711-.0483828 2.8276248.4667964 3.885 1.435.376.331.741.7 1.1 1.086h-46.514c.17922377-.5022255.40486626-.9866538.674-1.447zm50 5.446c0 .5522847-.4477153 1-1 1h-39c-.5522847 0-1 .4477153-1 1s.4477153 1 1 1h36.685l-4.039 14.533c-.2412803.8649687-1.0280138 1.4642097-1.926 1.467h-37.44c-.8983827-.0025772-1.68538848-.6024341-1.926-1.468l-4.039-14.532h6.685c.5522847 0 1-.4477153 1-1s-.4477153-1-1-1h-9c-.55228475 0-1-.4477153-1-1v-1c0-.5522847.44771525-1 1-1h54c.5522847 0 1 .4477153 1 1z" fill="#000"/></g></g></g></svg>