<svg height="512" viewBox="0 0 60 60" width="512" xmlns="http://www.w3.org/2000/svg"><g id="Page-1" fill="none" fill-rule="evenodd"><g id="013---Totem" fill-rule="nonzero"><path id="Shape" d="m37 2.62.0000021 18.38h-14.0000042l.0000021-18.38c-.001294-.80482877.5891552-1.48825197 1.3856429-1.60383063.7964876-.11557865 1.5568367.37182967 1.7843571 1.14383063.5090144 1.68975398 2.0652439 2.84626693 3.83 2.84626693s3.3209856-1.15651295 3.83-2.84626693c.2275204-.77200096.9878695-1.25940928 1.7843571-1.14383063.7964877.11557866 1.3869369.79900186 1.3856429 1.60383063z" fill="#ff9801"/><path id="Shape" d="m23.17 2.16c.5093025 1.68866351 2.0662076 2.84313102 3.83 2.84.5146971-.00204299 1.0241092-.1039254 1.5-.3-1.1211723-.45023008-1.9779542-1.38423269-2.33-2.54-.1951243-.66549593-.7935701-1.13194878-1.4865659-1.15868963-.6929959-.02674085-1.325607.39220883-1.5714341 1.04068963.0213281.03832104.0406867.07770559.058.118z" fill="#f57c00"/><path id="Shape" d="m35.38 1c-.6643152.00739241-1.2563283.42084928-1.492 1.042.0729895.18401448.1109739.38004105.112.578v18.38h3v-18.38c-.0032904-.89333482-.7266652-1.6167096-1.62-1.62z" fill="#f57c00"/><path id="Rectangle-path" d="m23 26h14v13h-14z" fill="#ff9801"/><path id="Rectangle-path" d="m34 26h3v13h-3z" fill="#f57c00"/><path id="Shape" d="m30 44v15h-4c-1.6568542 0-3-1.3431458-3-3v-12z" fill="#ff9801"/><path id="Rectangle-path" d="m27 44h3v15h-3z" fill="#f57c00"/><path id="Shape" d="m37 44v12c0 1.6568542-1.3431458 3-3 3h-4v-15z" fill="#ff9801"/><path id="Shape" d="m34 44v12c0 1.6568542-1.3431458 3-3 3h3c1.6568542 0 3-1.3431458 3-3v-12z" fill="#f57c00"/><path id="Rectangle-path" d="m18 16h5v7h-5z" fill="#ef314c"/><path id="Rectangle-path" d="m13 16h5v7h-5z" fill="#9d27b0"/><path id="Shape" d="m13 16v7.0000022l-4-.0000022c-.33424012.000246-.66818719-.0197909-1-.06v-6.94z" fill="#ef314c"/><path id="Shape" d="m8 16v6.94c-3.62731554-.4558665-6.48413351-3.3126845-6.94-6.94z" fill="#9d27b0"/><path id="Shape" d="m23 11v5h-21.94c-.04020915-.3318128-.06024597-.6657599-.06-1v-3c0-.5522847.44771525-1 1-1z" fill="#f44335"/><path id="Rectangle-path" d="m20 11h3v5h-3z" fill="#c81e1e"/><path id="Rectangle-path" d="m23 21h14v5h-14z" fill="#f44335"/><path id="Rectangle-path" d="m34 21h3v5h-3z" fill="#c81e1e"/><path id="Rectangle-path" d="m23 39h14v5h-14z" fill="#f44335"/><path id="Rectangle-path" d="m34 39h3v5h-3z" fill="#c81e1e"/><path id="Shape" d="m59 12v3c.000246.3342401-.0197909.6681872-.06 1h-21.94v-5h21c.5522847 0 1 .4477153 1 1z" fill="#f44335"/><path id="Shape" d="m58 11h-3c.5522847 0 1 .4477153 1 1v3c.000246.3342401-.0197909.6681872-.06 1h3c.0402091-.3318128.060246-.6657599.06-1v-3c0-.5522847-.4477153-1-1-1z" fill="#c81e1e"/><path id="Rectangle-path" d="m37 16h5v7h-5z" fill="#ef314c"/><path id="Rectangle-path" d="m42 16h5v7h-5z" fill="#9d27b0"/><path id="Shape" d="m52 16v6.94c-.3318128.0402091-.6657599.060246-1 .06l-4 .0000022v-7.0000022z" fill="#ef314c"/><path id="Shape" d="m58.94 16c-.4558665 3.6273155-3.3126845 6.4841335-6.94 6.94v-6.94z" fill="#9d27b0"/><path id="Shape" d="m55.94 16c-.3189729 2.4743875-1.7766859 4.6572572-3.94 5.9v1.04c3.6273155-.4558665 6.4841335-3.3126845 6.94-6.94z" fill="#6a1b9a"/><path id="Shape" d="m27.907 14.512 1.238 2.063c.1812828.2988593.5054569.481372.855.481372s.6737172-.1825127.855-.481372l1.237-2.063c.1841031-.3088704.1882041-.6928029.0107408-1.0055355-.1774633-.3127325-.509165-.5061103-.8687408-.5064645h-2.468c-.3597546-.0000052-.6917856.193231-.8694936.5060301-.1777079.3127991-.1737008.6969459.0104936 1.0059699z" fill="#ef314c"/><g fill="#000"><path id="Shape" d="m58 10h-20v-7.38c-.0005946-1.3001332-.9545303-2.40316422-2.2409879-2.59124281-1.2864576-.1880786-2.516242.59569508-2.8890121 1.84124281-.3844746 1.2631612-1.5496224 2.12644405-2.87 2.12644405s-2.4855254-.86328285-2.87-2.12644405c-.3727701-1.24554773-1.6025545-2.02932141-2.8890121-1.84124281-1.2864576.18807859-2.2403933 1.29110961-2.2409879 2.59124281v7.38h-20c-1.10320187.0032948-1.9967052.8967981-2 2v3c.00524063.6867254.08572101 1.3708085.24 2.04.05.19.1.38.16.57.35426781 1.1696931.94287922 2.2550517 1.73 3.19 1.38352076 1.6276638 3.29472127 2.717756 5.4 3.08.48595084.0796688.97756189.1198003 1.47.12h13v32c0 2.209139 1.790861 4 4 4h8c2.209139 0 4-1.790861 4-4v-32h13c.4924381-.0001997.9840492-.0403312 1.47-.12 2.1052787-.362244 4.0164792-1.4523362 5.4-3.08.7871208-.9349483 1.3757322-2.0203069 1.73-3.19.06-.19.11-.38.16-.57.154279-.6691915.2347594-1.3532746.24-2.04v-3c-.0032948-1.1032019-.8967981-1.9967052-2-2zm-51 11.71c-2.25689904-.6868349-4.02316507-2.453101-4.71-4.71h4.71zm5 .29h-3v-5h3zm5 0h-3v-5h3zm5 0h-3v-5h3zm0-7h-20v-3h20zm7 43h-3c-1.1032019-.0032948-1.9967052-.8967981-2-2v-11h5zm7-2c-.0032948 1.1032019-.8967981 1.9967052-2 2h-3v-13h5zm0-13h-12v-3h12zm0-5h-12v-11h12zm0-13h-12v-3h12zm0-5h-12v-17.38c.0016417-.34173423.2782658-.61835833.62-.62.2758943-.00096109.5179697.1836727.59.45.6417203 2.10816641 2.5863279 3.54893656 4.79 3.54893656s4.1482797-1.44077015 4.79-3.54893656c.0720303-.2663273.3141057-.45096109.59-.45.3417342.00164167.6183583.27826577.62.62zm5 2h-3v-5h3zm5 0h-3v-5h3zm5 0h-3v-5h3zm2-.29v-4.71h4.71c-.6868349 2.256899-2.453101 4.0231651-4.71 4.71zm5-6.71h-20v-3h20z"/><path id="Shape" d="m27 11c.5522847 0 1-.4477153 1-1v-2c0-.55228475-.4477153-1-1-1s-1 .44771525-1 1v2c0 .5522847.4477153 1 1 1z"/><path id="Shape" d="m33 11c.5522847 0 1-.4477153 1-1v-2c0-.55228475-.4477153-1-1-1s-1 .44771525-1 1v2c0 .5522847.4477153 1 1 1z"/><path id="Shape" d="m27 29c-.5522847 0-1 .4477153-1 1v2c0 .5522847.4477153 1 1 1s1-.4477153 1-1v-2c0-.5522847-.4477153-1-1-1z"/><path id="Shape" d="m33 29c-.5522847 0-1 .4477153-1 1v2c0 .5522847.4477153 1 1 1s1-.4477153 1-1v-2c0-.5522847-.4477153-1-1-1z"/><path id="Shape" d="m30 33c-.5522847 0-1 .4477153-1 1v1c0 .5522847.4477153 1 1 1s1-.4477153 1-1v-1c0-.5522847-.4477153-1-1-1z"/><path id="Shape" d="m27.024 13.015c-.3593659.6246442-.3497831 1.3954825.025 2.011l1.238 2.064c.3584715.6044722 1.0102341.9739185 1.713.971.7022504.0019559 1.3532699-.3672847 1.712-.971l1.238-2.063c.3744135-.6158906.3843735-1.38664.026-2.012-.3562941-.6270636-1.0217829-1.0145972-1.743-1.015h-2.467c-.7211993-.0004958-1.3868094.3873311-1.742 1.015zm1.742.985h2.469l-1.235 2.061-1.235-2.061z"/></g></g></g></svg>